<?xml version="1.0" encoding="utf-8"?>
<!-- Generator: Adobe Illustrator 27.0.0, SVG Export Plug-In . SVG Version: 6.00 Build 0)  -->
<svg version="1.1" id="Layer_1" xmlns="http://www.w3.org/2000/svg" xmlns:xlink="http://www.w3.org/1999/xlink" x="0px" y="0px"
	 viewBox="0 0 800 800" style="enable-background:new 0 0 800 800;" xml:space="preserve">
<style type="text/css">
	.st0{fill:#DFF0FE;}
	.st1{fill:#4788C7;}
	.st2{fill:#B6DCFE;}
</style>
<g>
	<path class="st0" d="M400,459.2c-96.5,0-175-78.5-175-175s78.5-175,175-175s175,78.5,175,175S496.5,459.2,400,459.2z"/>
	<path class="st1" d="M400,118.4c91.4,0,165.8,74.4,165.8,165.8S491.4,450,400,450s-165.8-74.4-165.8-165.8S308.6,118.4,400,118.4
		 M400,100c-101.7,0-184.2,82.5-184.2,184.2S298.3,468.4,400,468.4s184.2-82.5,184.2-184.2S501.7,100,400,100L400,100z"/>
	<g>
		<path class="st2" d="M77.6,790.8v-42.4c0-140.1,205.5-193.2,221.4-197.1h201.9c15.9,3.9,221.4,57,221.4,197.1v42.4H77.6z"/>
		<path class="st1" d="M499.8,560.5c21.2,5.3,213.3,57.2,213.3,187.9v33.1H86.8v-33.1c0-130.7,192.1-182.6,213.3-187.9H499.8
			 M502,542.1H298c0,0-229.6,52.1-229.6,206.3c0,0,0,22.2,0,51.6h663.2c0-29.4,0-51.6,0-51.6C731.6,594.2,502,542.1,502,542.1
			L502,542.1z"/>
	</g>
</g>
</svg>
