<?xml version="1.0" encoding="UTF-8"?><svg version="1.1" xmlns="http://www.w3.org/2000/svg" xmlns:xlink="http://www.w3.org/1999/xlink" viewBox="0 0 1500 1500" width="1500" height="1500" x="0px" y="0px">
    
    
    <!-- ITEM 0 -->
    <g>
        <defs>
            <clipPath id="clip-path-id-viewbox-item-0">
                <rect x="0.0" y="0.0" width="217.509" height="306.733"/>
            </clipPath>
        </defs>
        <g transform="translate(826.0 166.0) rotate(0.0 266.5 375.0) scale(2.450473313747937 2.445123283115935)">
            <g clip-path="url(#clip-path-id-viewbox-item-0)" transform="translate(-0.0 -0.0)">
                <title>stars</title><g id="Layer_2-i0" data-name="Layer 2"><g id="stars-i0"><path d="M217.009,236a32.852,32.852,0,0,0-7.9-1.86c-1.7-.2-3.39-.3-5.09-.33-.08-1.66-.21-3.32-.41-5a48.9,48.9,0,0,0-1.51-7.91.93.93,0,0,0-1.79,0,49.112,49.112,0,0,0-1.51,7.91c-.2,1.69-.33,3.38-.42,5.08-1.69.08-3.38.21-5.08.41a47.911,47.911,0,0,0-7.9,1.52,1,1,0,0,0-.63.63.931.931,0,0,0,.63,1.15,47.807,47.807,0,0,0,7.9,1.52c1.66.19,3.32.32,5,.41a41.277,41.277,0,0,0,.34,5.08,31.792,31.792,0,0,0,1.86,7.9.758.758,0,0,0,.44.44.78.78,0,0,0,1-.44,31.792,31.792,0,0,0,1.86-7.9,48.876,48.876,0,0,0,.33-5,42.115,42.115,0,0,0,5-.33,32.361,32.361,0,0,0,7.9-1.87.8.8,0,0,0,.44-.43A.79.79,0,0,0,217.009,236Z" fill="#ffb400"/><path d="M32.279,73.338a31.967,31.967,0,0,0-7.91-1.86,50.734,50.734,0,0,0-5.08-.34c-.09-1.66-.22-3.32-.41-5a47.807,47.807,0,0,0-1.52-7.9.911.911,0,0,0-.63-.63.921.921,0,0,0-1.146.616l0,.014a47.911,47.911,0,0,0-1.52,7.9c-.19,1.69-.33,3.39-.41,5.08-1.69.08-3.39.22-5.08.41a47.911,47.911,0,0,0-7.9,1.52,1,1,0,0,0-.63.63.92.92,0,0,0,.616,1.146l.014,0a47.807,47.807,0,0,0,7.9,1.52c1.66.19,3.32.32,5,.41q.043,2.547.34,5.08a32.057,32.057,0,0,0,1.86,7.91.758.758,0,0,0,.43.43.78.78,0,0,0,1-.43,32.836,32.836,0,0,0,1.86-7.91c.2-1.66.29-3.32.33-5a42.254,42.254,0,0,0,5-.33,32.872,32.872,0,0,0,7.91-1.86.79.79,0,0,0,0-1.45Z" fill="#ffb400"/><path d="M121.789,205.548a31.967,31.967,0,0,0-7.91-1.86,50.734,50.734,0,0,0-5.08-.34c-.09-1.66-.22-3.32-.41-5a47.807,47.807,0,0,0-1.52-7.9.911.911,0,0,0-.63-.63.921.921,0,0,0-1.146.616l0,.014a46.833,46.833,0,0,0-1.51,7.9c-.2,1.69-.34,3.39-.42,5.08-1.69.09-3.39.22-5.08.42a49.013,49.013,0,0,0-7.9,1.51,1,1,0,0,0-.63.63.92.92,0,0,0,.616,1.146l.014,0a47.807,47.807,0,0,0,7.9,1.52c1.66.19,3.32.33,5,.41a41.439,41.439,0,0,0,.34,5.09,31.98,31.98,0,0,0,1.86,7.9.758.758,0,0,0,.43.43.78.78,0,0,0,1-.43,32.9,32.9,0,0,0,1.86-7.9c.2-1.67.29-3.33.33-5a49.162,49.162,0,0,0,5-.33,32.442,32.442,0,0,0,7.91-1.86.79.79,0,0,0,0-1.45Z" fill="#ffb400"/><path d="M184.419,201.928a9.2,9.2,0,0,0-3.69-1.86,10.435,10.435,0,0,0-1.08-.22c-.06-.29-.12-.59-.2-.88a12.794,12.794,0,0,0-1.51-3.69,1.061,1.061,0,0,0-.34-.33,1,1,0,0,0-1.391.253.906.906,0,0,0-.049.077,12.569,12.569,0,0,0-1.52,3.69c-.09.35-.16.7-.23,1.05-.35.07-.7.14-1,.23a12.569,12.569,0,0,0-3.69,1.52,1.02,1.02,0,0,0-.33.33,1.05,1.05,0,0,0,.328,1.448l0,0a12.794,12.794,0,0,0,3.69,1.51c.29.08.59.14.88.2a10.435,10.435,0,0,0,.22,1.08,9.319,9.319,0,0,0,1.86,3.69l.11.11a1,1,0,0,0,1.34-.11,9.063,9.063,0,0,0,1.86-3.69c.08-.3.15-.6.2-.9a3.642,3.642,0,0,0,.9-.2,9.063,9.063,0,0,0,3.69-1.86,1.142,1.142,0,0,0,.11-.11A1,1,0,0,0,184.419,201.928Z" fill="#ffb400"/><path d="M148.419,91.478a12.569,12.569,0,0,0-3.69-1.52c-.29-.07-.59-.14-.88-.19a8.416,8.416,0,0,0-.22-1.09,8.994,8.994,0,0,0-1.86-3.68l-.11-.11a1,1,0,0,0-1.34.11,9.3,9.3,0,0,0-1.86,3.68c-.08.3-.14.61-.19.91a9.7,9.7,0,0,0-4.6,2.06l-.1.1a1,1,0,0,0,.1,1.34,9.222,9.222,0,0,0,3.69,1.87,10.45,10.45,0,0,0,1.08.21c.06.3.13.59.2.89a12.631,12.631,0,0,0,1.52,3.68,1,1,0,0,0,1.346.434.99.99,0,0,0,.434-.434,12.819,12.819,0,0,0,1.51-3.68c.09-.36.17-.71.23-1.06.35-.06.7-.14,1-.22a12.569,12.569,0,0,0,3.69-1.52.983.983,0,0,0,.33-.33A1.05,1.05,0,0,0,148.419,91.478Z" fill="#ffb400"/><path d="M45.149,156.758a10.435,10.435,0,0,0-1.08-.22c-.06-.29-.13-.59-.2-.88a12.542,12.542,0,0,0-1.52-3.69,1,1,0,0,0-.33-.33,1.05,1.05,0,0,0-1.448.327l0,0a12.822,12.822,0,0,0-1.51,3.69c-.09.35-.16.7-.23,1.05-.35.07-.7.14-1,.23a12.794,12.794,0,0,0-3.69,1.51,1.071,1.071,0,0,0-.33.34,1.05,1.05,0,0,0,.328,1.448l0,0a12.794,12.794,0,0,0,3.69,1.51c.29.08.59.14.88.2a8.268,8.268,0,0,0,.22,1.08,9.076,9.076,0,0,0,1.86,3.69l.11.1a.941.941,0,0,0,1.327-.084l.013-.016a9.2,9.2,0,0,0,1.86-3.69c.08-.3.14-.6.2-.9a3.642,3.642,0,0,0,.9-.2,9.063,9.063,0,0,0,3.69-1.86l.1-.11a1,1,0,0,0-.1-1.34A9.078,9.078,0,0,0,45.149,156.758Z" fill="#ffb400"/><path d="M141.739,296.478a10.621,10.621,0,0,0-1.09-.22,3.961,3.961,0,0,0-.19-.88,12.542,12.542,0,0,0-1.52-3.69,1,1,0,0,0-.33-.33,1.05,1.05,0,0,0-1.448.328l0,0a12.569,12.569,0,0,0-1.52,3.69c-.08.35-.16.7-.22,1.05-.35.07-.7.14-1.06.23a12.859,12.859,0,0,0-3.68,1.51,1.223,1.223,0,0,0-.34.34,1.06,1.06,0,0,0,.34,1.45,12.859,12.859,0,0,0,3.68,1.51c.3.08.59.14.89.2a10.4,10.4,0,0,0,.21,1.08,9.234,9.234,0,0,0,1.88,3.67l.1.1a.94.94,0,0,0,1.3-.1,9.215,9.215,0,0,0,1.87-3.69c.08-.3.14-.6.19-.9.3-.05.6-.12.91-.2a8.994,8.994,0,0,0,3.68-1.86l.11-.11a1,1,0,0,0-.11-1.34A8.994,8.994,0,0,0,141.739,296.478Z" fill="#ffb400"/><path d="M127.739,149.878a7.109,7.109,0,0,0,.93.49v.06a5.61,5.61,0,0,0,1.87,2.36,1.218,1.218,0,0,0,1.44,0,13.629,13.629,0,0,1,4-4,1.209,1.209,0,0,0,0-1.45,5.649,5.649,0,0,0-2.36-1.86h-.06a6.929,6.929,0,0,0-.49-.93,5.872,5.872,0,0,0-.92-1.18,1.271,1.271,0,0,0-1.78,0,5.945,5.945,0,0,0-.92,1.18,6.175,6.175,0,0,0-.58,1.14,6.923,6.923,0,0,0-1.15.58,6.463,6.463,0,0,0-1.18.93,1.28,1.28,0,0,0,0,1.78A5.92,5.92,0,0,0,127.739,149.878Z" fill="#ffb400"/><path d="M115.729,55.568a5.884,5.884,0,0,0-.93-.48.409.409,0,0,0,0-.07,5.416,5.416,0,0,0-1.86-2.35,1.2,1.2,0,0,0-1.45,0,5.378,5.378,0,0,0-1.79,2.2,5.429,5.429,0,0,0-2.2,1.79,1.2,1.2,0,0,0,0,1.45,5.537,5.537,0,0,0,2.36,1.86h.06a5.884,5.884,0,0,0,.48.93,6.334,6.334,0,0,0,.92,1.18,1.279,1.279,0,0,0,1.79,0,6.293,6.293,0,0,0,.92-1.18,6.114,6.114,0,0,0,.58-1.14,6.752,6.752,0,0,0,1.14-.58,6.031,6.031,0,0,0,1.18-.93,1.26,1.26,0,0,0,0-1.78A5.639,5.639,0,0,0,115.729,55.568Z" fill="#ffb400"/><path d="M78.669,2.478h-.06a5.129,5.129,0,0,0-.49-.93A5.652,5.652,0,0,0,77.2.368a1.26,1.26,0,0,0-1.78,0,5.686,5.686,0,0,0-.92,1.18,6.175,6.175,0,0,0-.58,1.14,6.2,6.2,0,0,0-1.15.58,6.684,6.684,0,0,0-1.18.92,1.28,1.28,0,0,0,0,1.78,6.312,6.312,0,0,0,1.18.93,5.927,5.927,0,0,0,.93.48.122.122,0,0,1,0,.06,5.487,5.487,0,0,0,1.87,2.36,1.191,1.191,0,0,0,1.44,0,5.461,5.461,0,0,0,1.8-2.2,5.5,5.5,0,0,0,2.2-1.79,1.209,1.209,0,0,0,0-1.45A5.437,5.437,0,0,0,78.669,2.478Z" fill="#ffb400"/><path d="M64.539,120.478h-.06a6.929,6.929,0,0,0-.49-.93,6.22,6.22,0,0,0-.92-1.18,1.28,1.28,0,0,0-1.78,0,6.75,6.75,0,0,0-.93,1.18,6.846,6.846,0,0,0-.58,1.15,6.175,6.175,0,0,0-1.14.58,5.974,5.974,0,0,0-1.18.92,1.271,1.271,0,0,0,0,1.78,7.2,7.2,0,0,0,2.11,1.41v.06a5.586,5.586,0,0,0,1.86,2.36,1.209,1.209,0,0,0,1.45,0,5.457,5.457,0,0,0,1.79-2.21,5.365,5.365,0,0,0,2.2-1.79,1.188,1.188,0,0,0,0-1.44A5.522,5.522,0,0,0,64.539,120.478Z" fill="#ffb400"/><path d="M34.4,241.218h-.06a6.991,6.991,0,0,0-.49-.94,6.22,6.22,0,0,0-.92-1.18,1.28,1.28,0,0,0-1.78,0,6.22,6.22,0,0,0-.92,1.18,6.524,6.524,0,0,0-.58,1.15,7.155,7.155,0,0,0-2.33,1.5,1.28,1.28,0,0,0,0,1.78,6.463,6.463,0,0,0,1.18.93,5.927,5.927,0,0,0,.93.48v.06a5.586,5.586,0,0,0,1.86,2.36,1.209,1.209,0,0,0,1.45,0,13.761,13.761,0,0,1,4-4,1.209,1.209,0,0,0,0-1.45A5.5,5.5,0,0,0,34.4,241.218Z" fill="#ffb400"/></g></g>
            </g>
        </g>
    </g>
    
    <!-- ITEM 1 -->
    <g>
        <defs>
            <clipPath id="clip-path-id-viewbox-item-1">
                <rect x="0.0" y="0.0" width="1265.045" height="1175.0"/>
            </clipPath>
        </defs>
        <g transform="translate(1005.0 428.0) rotate(0.0 -390.5 363.0) scale(-0.6173693425925559 0.617872340425532)">
            <g clip-path="url(#clip-path-id-viewbox-item-1)" transform="translate(-0.0 -0.0)">
                
<g>
	<path style="fill:#00AEE0;" d="M1186.592,771.907c0,0-49.822,22.149-50.826,23.153c-0.451,0.451-2.817,7.589-5.286,15.312   C863.34,749.473,607.379,701.947,395.919,693.243c-14.308-0.582-28.175,4.796-38.55,14.649   C281.272,780.076,169.193,855.17,39.133,930.183L0.101,908.128c0,0-1.003,27.132,3.311,51.936   c2.99,17.198,8.549,33.272,18.783,38.409c2.208,1.124,4.616,1.727,7.265,1.727c261.303,31.908,520.961,97.208,755.353,170.877   c29.841,9.391,62.431,1.626,84.887-20.148l314.483-304.891c2.709-2.631,4.111-5.892,4.406-9.188   C1193.282,817.206,1186.592,778.446,1186.592,771.907z"/>
	<path style="fill:#10294C;" d="M1175.262,758.929C891.297,692.927,617.693,640.245,393.91,631.04   c-14.305-0.588-28.165,4.782-38.553,14.635c-80.235,76.103-200.434,155.428-339.54,234.49   c-26.064,14.814-18.12,54.198,11.638,57.832c261.304,31.906,520.955,97.211,755.35,170.876c29.849,9.381,62.426,1.63,84.89-20.149   l314.49-304.902C1190.551,775.711,1186.611,761.567,1175.262,758.929z"/>
	<g>
		<path style="fill:#00AEE0;" d="M361.277,51.348L361.277,51.348c3.211-8.83,11.84-14.449,21.272-14.047    c89.503,4.616,412.795,26.69,787.06,120.206c9.031,2.207,15.452,10.034,16.255,19.064c5.218,65.421,23.078,328.711,1.003,575.345    c-0.803,9.833-8.429,17.86-18.262,19.265c-1.806,0-3.411,0.201-5.218,0.201c-1.003,0-2.007-0.201-3.01-0.401    c-330.116-77.863-691.136-117.999-781.04-127.431c-11.639-1.204-20.269-11.639-19.064-23.279c21.473-236.6,5.82-483.233,0-559.893    C359.872,57.368,360.273,54.358,361.277,51.348z M1150.143,697.331c13.245-196.865,3.411-394.132-2.81-485.441    c-0.803-10.837-8.428-19.867-18.864-22.476C823.037,115.766,555.734,89.878,430.711,81.048    c-13.646-1.003-25.486,9.432-26.49,23.078c0,1.003,0,2.207,0,3.211c6.02,98.332,13.646,286.167,0,473.601    c-1.003,13.245,8.83,25.085,22.075,26.49c129.438,14.449,416.006,50.37,693.745,112.179c13.446,3.01,26.69-5.418,29.7-18.864    C1149.942,699.74,1150.143,698.535,1150.143,697.331z"/>
		<path style="fill:#FFFFFF;" d="M731.729,665.624c5.017-0.602,10.235-0.602,15.252-0.201c5.017,0.401,10.034,0.803,15.051,1.605    c5.017,0.803,9.833,1.806,14.85,3.01s9.833,2.81,14.449,4.816c2.609,1.204,3.612,4.014,2.609,6.622    c-0.803,1.605-2.207,2.81-4.014,3.01l0,0c-5.017,0.401-10.235,0.602-15.252,0.201c-5.017-0.401-10.034-1.003-15.051-1.605    c-5.017-0.602-9.833-1.806-14.85-3.01c-5.017-1.204-9.833-2.81-14.449-5.017l0,0c-2.408-1.003-3.411-3.813-2.408-6.422    C728.719,666.828,730.123,665.825,731.729,665.624L731.729,665.624z"/>
		<path style="fill:#10294C;" d="M1253.693,139.446c5.017,65.421,22.476,331.521,0.602,578.154    c-2.81,31.707-41.139,51.574-85.69,53.782c9.833-1.405,17.258-9.432,18.262-19.265c21.874-246.634,4.014-509.924-1.003-575.345    c-0.803-9.231-7.224-16.857-16.255-19.064C795.344,64.191,472.051,42.117,382.548,37.501c-9.432-0.401-17.86,5.218-21.272,13.847    c12.241-41.139,57.595-52.979,89.302-51.173c89.503,4.616,412.795,26.69,786.86,120.206    C1246.469,122.589,1253.091,130.214,1253.693,139.446z"/>
		<path style="fill:#10294C;" d="M1147.334,211.89c6.221,91.108,16.054,288.375,2.81,485.441    c-1.003,13.646-12.844,24.081-26.49,23.078c-1.204,0-2.408-0.201-3.612-0.602c-277.739-61.809-564.107-97.73-693.745-112.179    c-13.245-1.405-23.078-13.044-22.075-26.49c13.646-187.434,6.02-375.268,0-473.601c-0.803-13.646,9.633-25.486,23.279-26.289    c1.003,0,2.207,0,3.211,0c124.822,8.83,392.125,34.717,697.759,108.366C1138.905,192.224,1146.531,201.255,1147.334,211.89z"/>
		<path style="fill:#00AEE0;" d="M1197.102,151.486c2.007-3.01,4.415-5.619,7.224-7.626c2.81-2.007,5.619-3.813,8.83-5.218    c3.211-1.405,6.422-2.408,9.833-3.01c3.412-0.602,7.024-0.602,10.435,0c2.81,0.602,4.616,3.211,4.214,6.02    c-0.201,1.204-1.003,2.408-2.007,3.211l-0.401,0.201c-2.408,1.806-5.017,3.211-7.827,4.616c-2.609,1.405-5.218,2.609-7.826,3.612    c-2.609,1.003-5.418,2.207-8.228,3.211c-2.81,1.003-5.82,1.806-8.83,2.408l-0.602,0.201c-2.609,0.401-5.218-1.405-5.619-4.014    C1196.299,153.694,1196.5,152.49,1197.102,151.486L1197.102,151.486z"/>
	</g>
	<g>
		<g>
			<path style="fill:#00AEE0;" d="M401.054,683.34c-4.255-0.75-8.699-1.222-12.285-0.57c-5.328,0.967-7.834,4.222-10.22,6.116     c-4.784,3.827-9.75,7.631-14.629,11.442c-2.871,2.25-5.838,4.749-4.507,7.023c1.434,2.486,7.442,3.796,13.194,4.81     c0.34,0.06,0.679,0.119,1.016,0.177c10.08,1.736,20.175,3.474,30.279,5.206c4.164,0.718,8.76,1.445,13.446,0.864     c6.496-0.811,10.194-3.706,12.958-6.258c5.323-4.873,10.631-9.749,15.938-14.624c1.539-1.411,3.114-2.981,2.08-4.346     c-1.071-1.401-4.567-2.13-7.89-2.716c-0.147-0.026-0.292-0.051-0.438-0.077c-9.38-1.621-18.76-3.241-28.115-4.866     c-0.082-0.014-0.165-0.028-0.249-0.043c-1.388-0.245-3.031-0.598-4.792-0.979C405.027,684.11,403.062,683.694,401.054,683.34"/>
			<path style="fill:#00AEE0;" d="M500.397,700.857c-4.25-0.749-8.693-1.221-12.28-0.569c-5.328,0.967-7.85,4.219-10.22,6.116     c-4.8,3.825-9.75,7.631-14.629,11.442c-2.871,2.25-5.853,4.746-4.523,7.021c1.449,2.488,7.444,3.796,13.194,4.81     c0.34,0.06,0.678,0.119,1.015,0.177c10.095,1.738,20.191,3.477,30.295,5.209c4.164,0.718,8.76,1.445,13.43,0.861     c6.512-0.808,10.194-3.706,12.974-6.255c5.308-4.876,10.615-9.751,15.923-14.627c1.539-1.411,3.114-2.981,2.08-4.346     c-1.071-1.401-4.567-2.13-7.889-2.716c-0.147-0.026-0.292-0.051-0.438-0.077c-9.38-1.621-18.744-3.238-28.115-4.866     c-0.082-0.014-0.165-0.028-0.248-0.043c-1.386-0.244-3.016-0.595-4.792-0.979C504.365,701.626,502.402,701.211,500.397,700.857"/>
			<path style="fill:#00AEE0;" d="M599.729,718.372c-4.25-0.749-8.693-1.221-12.28-0.569c-5.328,0.967-7.834,4.222-10.22,6.116     c-4.784,3.827-9.75,7.631-14.629,11.442c-2.871,2.25-5.838,4.749-4.507,7.023c1.434,2.486,7.442,3.796,13.194,4.81     c0.34,0.06,0.679,0.119,1.016,0.177c10.08,1.736,20.175,3.474,30.279,5.206c4.164,0.718,8.76,1.445,13.446,0.864     c6.496-0.811,10.194-3.706,12.958-6.258c5.323-4.873,10.631-9.749,15.938-14.624c1.524-1.413,3.115-2.981,2.08-4.346     c-1.086-1.404-4.568-2.13-7.89-2.716c-0.147-0.026-0.292-0.051-0.438-0.077c-9.38-1.621-18.759-3.241-28.13-4.869     c-0.082-0.014-0.165-0.028-0.249-0.043c-1.386-0.244-3.016-0.595-4.792-0.979C603.697,719.141,601.734,718.726,599.729,718.372"/>
			<path style="fill:#00AEE0;" d="M699.077,735.89c-4.25-0.749-8.693-1.221-12.28-0.569c-5.328,0.967-7.85,4.219-10.22,6.116     c-4.8,3.825-9.75,7.631-14.629,11.442c-2.871,2.25-5.853,4.746-4.523,7.021c1.449,2.488,7.444,3.796,13.194,4.81     c0.34,0.06,0.678,0.119,1.016,0.177c10.095,1.738,20.191,3.477,30.279,5.206c4.164,0.718,8.775,1.447,13.446,0.864     c6.512-0.808,10.194-3.706,12.974-6.255c5.308-4.876,10.615-9.751,15.923-14.627c1.539-1.411,3.114-2.981,2.08-4.346     c-1.071-1.401-4.567-2.13-7.889-2.716c-0.147-0.026-0.292-0.051-0.438-0.077c-9.38-1.621-18.744-3.238-28.115-4.866     c-0.082-0.014-0.165-0.028-0.248-0.043c-1.386-0.244-3.016-0.595-4.792-0.979C703.045,736.659,701.082,736.243,699.077,735.89"/>
			<path style="fill:#00AEE0;" d="M798.409,753.405c-4.25-0.749-8.693-1.221-12.28-0.569c-5.328,0.967-7.834,4.222-10.22,6.116     c-4.784,3.827-9.75,7.631-14.629,11.442c-2.871,2.25-5.837,4.749-4.507,7.023c1.434,2.486,7.442,3.796,13.194,4.81     c0.34,0.06,0.679,0.119,1.016,0.177c10.08,1.736,20.175,3.474,30.279,5.206c4.164,0.718,8.76,1.445,13.446,0.864     c6.496-0.811,10.194-3.706,12.958-6.258c5.308-4.876,10.631-9.749,15.939-14.624c1.524-1.413,3.114-2.981,2.08-4.346     c-1.086-1.404-4.568-2.13-7.903-2.718c-0.147-0.026-0.294-0.052-0.44-0.077c-9.364-1.618-18.744-3.238-28.115-4.866     c-0.082-0.014-0.165-0.028-0.249-0.043c-1.386-0.244-3.016-0.595-4.792-0.979C802.377,754.174,800.414,753.758,798.409,753.405"/>
			<path style="fill:#00AEE0;" d="M897.757,770.922c-4.25-0.749-8.693-1.221-12.28-0.569c-5.328,0.967-7.85,4.219-10.22,6.116     c-4.8,3.825-9.766,7.628-14.629,11.442c-2.871,2.25-5.853,4.746-4.523,7.021c1.449,2.488,7.444,3.796,13.194,4.81     c0.34,0.06,0.678,0.119,1.016,0.177c10.095,1.738,20.191,3.477,30.279,5.206c4.164,0.718,8.775,1.447,13.446,0.864     c6.496-0.811,10.194-3.706,12.974-6.255c5.308-4.876,10.615-9.751,15.923-14.627c1.539-1.411,3.114-2.981,2.08-4.346     c-1.071-1.401-4.567-2.13-7.89-2.716c-0.147-0.026-0.292-0.051-0.438-0.077c-9.38-1.621-18.744-3.238-28.115-4.866     c-0.082-0.014-0.165-0.028-0.249-0.043c-1.386-0.244-3.016-0.595-4.792-0.979C901.725,771.691,899.762,771.276,897.757,770.922"/>
			<path style="fill:#00AEE0;" d="M997.089,788.437c-4.25-0.749-8.694-1.221-12.28-0.569c-5.328,0.967-7.834,4.222-10.22,6.116     c-4.784,3.827-9.75,7.631-14.629,11.442c-2.871,2.25-5.838,4.749-4.507,7.023c1.434,2.486,7.428,3.793,13.192,4.809     c0.341,0.06,0.68,0.119,1.018,0.177c10.08,1.736,20.175,3.474,30.279,5.206c4.164,0.718,8.76,1.445,13.446,0.864     c6.496-0.811,10.193-3.706,12.958-6.258c5.308-4.876,10.631-9.749,15.939-14.624c1.524-1.413,3.115-2.981,2.08-4.346     c-1.086-1.404-4.568-2.13-7.903-2.718c-0.147-0.026-0.293-0.052-0.44-0.077c-9.364-1.618-18.744-3.238-28.115-4.866     c-0.082-0.014-0.165-0.028-0.249-0.043c-1.386-0.244-3.016-0.595-4.792-0.979C1001.057,789.206,999.094,788.791,997.089,788.437"/>
			<path style="fill:#00AEE0;" d="M295.639,765.889c-4.25-0.749-8.693-1.221-12.28-0.57c-5.328,0.967-7.85,4.219-10.22,6.116     c-4.8,3.825-9.75,7.631-14.629,11.442c-2.871,2.25-5.846,4.756-4.531,7.027c1.457,2.482,7.452,3.789,13.202,4.803     c0.34,0.06,0.679,0.119,1.017,0.177c10.095,1.738,20.191,3.477,30.286,5.215c4.164,0.718,8.769,1.438,13.455,0.857     c6.496-0.811,10.178-3.709,12.958-6.258c5.308-4.876,10.615-9.751,15.93-14.618c1.533-1.42,3.123-2.988,2.08-4.346     c-1.078-1.41-4.56-2.137-7.895-2.725c-0.147-0.026-0.293-0.051-0.439-0.077c-9.364-1.618-18.744-3.238-28.115-4.866     c-0.082-0.014-0.165-0.028-0.249-0.043c-1.386-0.244-3.016-0.595-4.792-0.979C299.607,766.658,297.644,766.243,295.639,765.889"/>
			<path style="fill:#00AEE0;" d="M394.977,783.405c-4.254-0.75-8.694-1.221-12.27-0.568c-5.328,0.967-7.85,4.219-10.22,6.116     c-4.8,3.825-9.766,7.628-14.629,11.442c-2.887,2.247-5.862,4.753-4.532,7.027c1.457,2.482,7.452,3.789,13.202,4.803     c0.34,0.06,0.679,0.119,1.017,0.177c10.095,1.738,20.191,3.477,30.27,5.213c4.164,0.718,8.768,1.438,13.455,0.857     c6.496-0.811,10.194-3.706,12.974-6.255c5.308-4.876,10.615-9.751,15.914-14.62c1.548-1.417,3.123-2.988,2.08-4.346     c-1.063-1.407-4.558-2.136-7.881-2.722c-0.146-0.026-0.292-0.051-0.438-0.077c-9.38-1.621-18.759-3.241-28.115-4.866     c-0.082-0.014-0.165-0.028-0.249-0.043c-1.388-0.245-3.031-0.598-4.792-0.979C398.95,784.175,396.984,783.759,394.977,783.405"/>
			<path style="fill:#00AEE0;" d="M494.319,800.922c-4.25-0.749-8.693-1.221-12.28-0.57c-5.328,0.967-7.85,4.219-10.22,6.116     c-4.8,3.825-9.75,7.631-14.629,11.442c-2.871,2.25-5.846,4.756-4.532,7.027c1.457,2.482,7.452,3.789,13.202,4.803     c0.34,0.06,0.679,0.119,1.017,0.177c9.043,1.553,236.953,41.706,291.901,51.354c1.683,0.39,3.484,0.733,5.26,1.046     c0.29,0.051,0.579,0.101,0.867,0.151c10.095,1.738,20.175,3.474,30.27,5.213c4.164,0.718,8.768,1.438,13.455,0.857     c6.496-0.811,10.194-3.706,12.974-6.255c5.308-4.876,10.615-9.751,15.914-14.62c1.548-1.417,3.123-2.988,2.08-4.346     c-1.063-1.407-4.558-2.136-7.881-2.722c-0.146-0.026-0.292-0.051-0.437-0.077c-7.062-1.22-14.109-2.438-21.156-3.655     c-1.185-0.276-2.449-0.507-3.689-0.725c-0.731-0.121-3.118-0.542-6.887-1.206c-2.174-0.462-4.632-1.004-7.159-1.45     c-1.727-0.305-3.486-0.564-5.209-0.722c-65.484-11.522-274.006-48.265-282.042-49.657c-0.082-0.014-0.165-0.028-0.249-0.043     c-1.386-0.244-3.016-0.595-4.792-0.979C498.287,801.691,496.324,801.275,494.319,800.922"/>
			<path style="fill:#FFFFFF;" d="M389.844,862.061c-3.287-0.58-7.389-0.433-12.911,2.169c-8.173,3.846-18.021,12.392-24.819,17.638     c-13.678,10.569-27.499,21.128-41.248,31.693c-8.108,6.23-16.872,13.094-20.207,18.176c-3.634,5.536,0.426,6.968,4.86,7.75     c0.275,0.049,0.552,0.095,0.828,0.139c7.072,1.139,183.228,32.1,225.762,39.492c1.086,0.445,2.402,0.746,3.749,0.984     c0.245,0.043,0.49,0.084,0.735,0.124c7.882,1.273,15.78,2.549,23.671,3.816c3.257,0.524,6.991,0.95,13.607-1.797     c9.212-3.813,19.637-11.841,28.289-18.766c16.521-13.239,33.017-26.475,49.538-39.714c4.802-3.841,9.964-8.059,11.682-11.037     c1.741-3.029-0.626-3.793-3.161-4.24c-0.148-0.026-0.296-0.051-0.444-0.075c-5.496-0.911-10.985-1.812-16.49-2.716     c-0.618-0.266-1.382-0.44-2.174-0.58c-0.175-0.031-0.351-0.06-0.527-0.088c-0.566-0.1-2.412-0.417-5.342-0.925     c-1.502-0.492-3.166-1.09-5.118-1.434c-1.335-0.235-2.804-0.352-4.448-0.237c-50.649-8.856-211.812-37.198-218.079-38.228     c-0.044-0.007-0.088-0.015-0.132-0.022c-1.077-0.19-2.205-0.581-3.434-0.989C392.777,862.774,391.402,862.336,389.844,862.061"/>
			<path style="fill:#00AEE0;" d="M891.679,870.987c-4.25-0.749-8.693-1.221-12.28-0.57c-5.328,0.967-7.85,4.219-10.22,6.116     c-4.8,3.825-9.75,7.631-14.629,11.442c-2.871,2.25-5.846,4.756-4.532,7.027c1.457,2.482,7.452,3.789,13.202,4.803     c0.34,0.06,0.679,0.119,1.016,0.177c10.095,1.738,20.191,3.477,30.286,5.215c4.164,0.718,8.769,1.438,13.439,0.854     c6.512-0.808,10.194-3.706,12.974-6.255c5.308-4.876,10.615-9.751,15.914-14.62c1.548-1.417,3.123-2.988,2.08-4.346     c-1.063-1.408-4.558-2.136-7.881-2.722c-0.146-0.026-0.292-0.051-0.437-0.077c-9.38-1.621-18.744-3.238-28.115-4.866     c-0.082-0.014-0.165-0.028-0.249-0.043c-1.386-0.244-3.016-0.595-4.792-0.979C895.647,871.756,893.684,871.341,891.679,870.987"/>
			<path style="fill:#00AEE0;" d="M403.712,732.885c-4.246-0.749-8.681-1.216-12.253-0.567c-5.312,0.97-7.834,4.222-10.204,6.119     c-4.809,3.831-9.766,7.628-14.629,11.442c-2.887,2.247-5.862,4.753-4.523,7.021c1.449,2.488,7.444,3.796,13.194,4.81     c0.34,0.06,0.679,0.119,1.015,0.177c10.095,1.738,20.175,3.474,30.27,5.213c4.164,0.718,8.768,1.438,13.455,0.857     c6.496-0.811,10.194-3.706,12.974-6.255c5.308-4.876,10.615-9.751,15.923-14.627c1.539-1.41,3.114-2.981,2.071-4.339     c-1.063-1.408-4.558-2.136-7.881-2.722c-0.146-0.026-0.292-0.051-0.437-0.077c-9.38-1.621-18.759-3.241-28.124-4.859     c-0.074-0.013-0.148-0.026-0.224-0.039c-1.389-0.245-3.006-0.601-4.785-0.978C407.727,733.665,405.741,733.243,403.712,732.885"/>
			<path style="fill:#00AEE0;" d="M503.048,750.401c-4.241-0.748-8.669-1.214-12.241-0.565c-5.328,0.967-7.85,4.219-10.22,6.116     c-4.809,3.831-9.75,7.631-14.629,11.442c-2.871,2.25-5.846,4.756-4.523,7.021c1.449,2.488,7.444,3.796,13.194,4.81     c0.34,0.06,0.679,0.119,1.016,0.177c10.095,1.738,20.191,3.477,30.286,5.215c4.164,0.718,8.769,1.438,13.454,0.857     c6.496-0.811,10.178-3.709,12.958-6.258c5.308-4.876,10.615-9.751,15.923-14.627c1.539-1.41,3.114-2.981,2.087-4.336     c-1.078-1.41-4.56-2.137-7.895-2.725c-0.147-0.026-0.293-0.052-0.439-0.077c-9.364-1.618-18.744-3.238-28.124-4.859     c-0.074-0.013-0.149-0.026-0.224-0.039c-1.389-0.245-3.006-0.601-4.785-0.978C507.06,751.18,505.075,750.758,503.048,750.401"/>
			<path style="fill:#00AEE0;" d="M602.393,767.918c-4.246-0.749-8.681-1.216-12.253-0.567c-5.312,0.97-7.834,4.222-10.22,6.116     c-4.793,3.834-9.75,7.631-14.613,11.444c-2.887,2.247-5.862,4.753-4.523,7.021c1.449,2.488,7.444,3.796,13.194,4.81     c0.34,0.06,0.679,0.119,1.016,0.177c10.095,1.738,20.175,3.474,30.27,5.213c4.164,0.718,8.768,1.438,13.455,0.857     c6.496-0.811,10.194-3.706,12.974-6.255c5.308-4.876,10.615-9.751,15.923-14.627c1.539-1.41,3.114-2.981,2.071-4.339     c-1.063-1.408-4.558-2.136-7.881-2.722c-0.146-0.026-0.292-0.051-0.438-0.077c-9.38-1.621-18.759-3.241-28.124-4.859     c-0.074-0.013-0.148-0.026-0.224-0.039c-1.389-0.245-3.005-0.601-4.785-0.978C606.407,768.698,604.421,768.276,602.393,767.918"/>
			<path style="fill:#00AEE0;" d="M701.728,785.434c-4.241-0.748-8.669-1.214-12.241-0.565c-5.328,0.967-7.85,4.219-10.22,6.116     c-4.809,3.831-9.75,7.631-14.629,11.442c-2.871,2.25-5.846,4.756-4.523,7.021c1.449,2.488,7.444,3.796,13.194,4.81     c0.34,0.06,0.679,0.119,1.016,0.177c10.095,1.738,20.19,3.477,30.286,5.215c4.164,0.718,8.769,1.438,13.439,0.854     c6.512-0.808,10.194-3.706,12.973-6.255c5.308-4.876,10.615-9.751,15.923-14.627c1.539-1.41,3.114-2.981,2.071-4.339     c-1.063-1.408-4.544-2.134-7.879-2.722c-0.147-0.026-0.293-0.052-0.439-0.077c-9.38-1.621-18.744-3.238-28.124-4.859     c-0.074-0.013-0.149-0.026-0.224-0.039c-1.389-0.245-3.006-0.601-4.785-0.978C705.74,786.213,703.755,785.791,701.728,785.434"/>
			<path style="fill:#00AEE0;" d="M801.072,802.951c-4.246-0.749-8.681-1.216-12.253-0.567c-5.312,0.97-7.834,4.222-10.22,6.116     c-4.793,3.834-9.75,7.631-14.613,11.444c-2.887,2.247-5.862,4.753-4.523,7.021c1.434,2.486,7.442,3.796,13.194,4.81     c0.34,0.06,0.679,0.119,1.016,0.177c10.095,1.738,20.175,3.474,30.27,5.213c4.164,0.718,8.768,1.438,13.455,0.857     c6.496-0.811,10.194-3.706,12.973-6.255c5.308-4.876,10.615-9.751,15.923-14.627c1.539-1.41,3.114-2.981,2.071-4.339     c-1.063-1.408-4.558-2.136-7.881-2.722c-0.146-0.026-0.292-0.051-0.437-0.077c-9.38-1.621-18.76-3.241-28.124-4.859     c-0.074-0.013-0.149-0.026-0.224-0.039c-1.389-0.245-3.005-0.601-4.785-0.978C805.087,803.73,803.102,803.308,801.072,802.951"/>
			<path style="fill:#00AEE0;" d="M900.408,820.466c-4.241-0.748-8.669-1.214-12.241-0.565c-5.328,0.967-7.85,4.219-10.22,6.116     c-4.809,3.831-9.75,7.631-14.629,11.442c-2.871,2.25-5.862,4.753-4.523,7.021c1.449,2.488,7.444,3.796,13.194,4.81     c0.34,0.06,0.679,0.119,1.016,0.177c10.095,1.738,20.191,3.477,30.286,5.215c4.164,0.718,8.768,1.438,13.439,0.854     c6.512-0.808,10.194-3.706,12.974-6.255c5.308-4.876,10.615-9.751,15.923-14.627c1.539-1.41,3.114-2.981,2.071-4.339     c-1.063-1.408-4.558-2.136-7.881-2.722c-0.146-0.026-0.292-0.051-0.437-0.077c-9.38-1.621-18.744-3.238-28.123-4.859     c-0.074-0.013-0.149-0.026-0.224-0.039c-1.389-0.245-3.005-0.601-4.785-0.978C904.42,821.245,902.435,820.824,900.408,820.466"/>
			<path style="fill:#00AEE0;" d="M999.753,837.983c-4.246-0.749-8.681-1.216-12.253-0.567c-5.312,0.97-7.834,4.222-10.22,6.116     c-4.793,3.834-9.75,7.631-14.629,11.442c-2.871,2.25-5.846,4.756-4.507,7.023c1.434,2.486,7.442,3.796,13.194,4.81     c0.34,0.06,0.679,0.119,1.016,0.177c10.08,1.736,20.175,3.474,30.27,5.213c4.164,0.718,8.768,1.438,13.455,0.857     c6.496-0.811,10.194-3.706,12.958-6.258c5.323-4.873,10.631-9.749,15.939-14.624c1.539-1.41,3.114-2.981,2.071-4.339     c-1.063-1.408-4.558-2.136-7.881-2.722c-0.146-0.026-0.292-0.051-0.437-0.077c-9.38-1.621-18.76-3.241-28.124-4.859     c-0.074-0.013-0.149-0.026-0.224-0.039c-1.389-0.245-3.006-0.601-4.785-0.978C1003.767,838.763,1001.781,838.341,999.753,837.983     "/>
		</g>
	</g>
</g>

            </g>
        </g>
    </g>
    
    <!-- ITEM 2 -->
    <g>
        <defs>
            <clipPath id="clip-path-id-viewbox-item-2">
                <rect x="0.0" y="0.0" width="923.873" height="1278.312"/>
            </clipPath>
        </defs>
        <g transform="translate(448.0 550.0) rotate(0.0 85.5 118.5) scale(0.1850903749757813 0.18540074723541672)">
            <g clip-path="url(#clip-path-id-viewbox-item-2)" transform="translate(-0.0 -0.0)">
                
<g>
	<g>
		<path style="fill:#F04E23;" d="M760.42,795.263H163.453c-45.563,0-82.5-36.937-82.5-82.5v-331.78    c0-51.396,10.085-101.298,29.974-148.321c19.192-45.377,46.651-86.112,81.614-121.075c34.962-34.962,75.697-62.42,121.074-81.614    C360.637,10.084,410.54,0,461.936,0s101.299,10.084,148.321,29.973c45.377,19.193,86.112,46.652,121.074,81.614    c34.963,34.962,62.422,75.698,81.614,121.075c19.889,47.023,29.974,96.925,29.974,148.321v331.78    C842.92,758.326,805.983,795.263,760.42,795.263z M245.953,630.263H677.92v-249.28C677.92,261.89,581.03,165,461.936,165    s-215.983,96.89-215.983,215.983V630.263z"/>
		<path style="fill:#F04E23;" d="M461.937,1278.3C461.937,1278.3,461.936,1278.3,461.937,1278.3    c-114.271,1.022-224.898-62.507-313.41-148.094C61.21,1043.528-3.991,934.791,0.19,820.2    c1.885-77.507,9.049-155.013,21.494-232.52c9.769-57.241,67.567-112.953,124.733-121.231c210.346-28.467,420.693-28.467,631.039,0    c57.165,8.277,114.965,63.99,124.733,121.231c12.444,77.507,19.609,155.013,21.494,232.52    c4.182,114.591-61.019,223.328-148.336,310.006C686.835,1215.794,576.207,1279.323,461.937,1278.3z"/>
		<path style="fill:#04294F;" d="M535.126,719.308c-25.322-35.317-79.1-46.198-116.16-23.504    c-37.06,22.694-51.812,75.542-31.865,114.15c6.798,13.157,17.047,24.825,20.453,39.237c9.965,42.167-42.198,83.005-27.148,123.635    c5.746,15.513,20.559,26.258,36.324,31.27c15.766,5.012,32.608,5.141,49.152,5.224c27.065,0.137,59.162-2.412,72.963-25.696    c9.627-16.242,6.274-37.121-0.832-54.613c-15.24-37.517-35.228-64.107-10.323-100.814    C550.24,794.962,561.057,755.474,535.126,719.308z"/>
		<path style="fill:#FFB400;" d="M503.377,998.702c9.627-16.242,6.274-37.121-0.832-54.613    c-15.24-37.517-35.228-64.107-10.323-100.814c22.55-33.236,33.367-72.724,7.436-108.89    c-19.229-26.819-54.865-39.528-87.131-34.162c2.065-1.574,4.209-3.054,6.438-4.419c37.06-22.694,90.838-11.813,116.16,23.504    c25.931,36.167,15.114,75.654-7.436,108.89c-24.905,36.707-4.918,63.297,10.323,100.814c7.106,17.492,10.458,38.371,0.832,54.613    c-8.775,14.804-24.949,21.22-42.521,23.899C499.006,1004.974,501.387,1002.06,503.377,998.702z"/>
		<path style="fill:#FFB400;" d="M476.353,56.611c-0.266,1.398-2.08,2.511-5.224,3.362c-1.572,0.425-3.477,0.785-5.689,1.08    c-1.106,0.147-2.289,0.279-3.545,0.394c-1.256,0.154-2.594,0.318-4.012,0.491c-2.821,0.321-5.926,0.594-9.293,0.82    c-3.373,0.314-7.021,0.769-10.902,1.092c-0.969,0.083-1.955,0.167-2.957,0.253c-1.001,0.094-2.018,0.264-3.049,0.391    c-2.055,0.258-4.174,0.524-6.356,0.799c-4.353,0.4-8.912,1.336-13.679,2.028c-1.191,0.193-2.397,0.347-3.611,0.568    c-1.21,0.248-2.434,0.499-3.671,0.753c-2.467,0.487-4.987,0.985-7.56,1.492c-1.288,0.212-2.567,0.593-3.866,0.896    c-1.297,0.317-2.606,0.636-3.927,0.958c-1.319,0.316-2.651,0.634-3.994,0.955c-0.671,0.163-1.347,0.309-2.02,0.485    c-0.67,0.196-1.343,0.393-2.019,0.591c-2.699,0.774-5.444,1.561-8.233,2.361c-0.696,0.198-1.395,0.396-2.096,0.595    c-0.693,0.235-1.389,0.47-2.087,0.707c-1.396,0.468-2.803,0.939-4.22,1.413c-5.702,1.745-11.402,4.106-17.296,6.281    c-11.651,4.812-23.667,10.343-35.743,16.926c-12.022,6.674-24.176,14.249-36.163,22.586c-5.934,4.232-11.786,8.65-17.421,13.074    c-5.646,4.432-11.053,8.983-16.299,13.524c-5.244,4.547-10.225,9.187-15.047,13.788c-4.794,4.627-9.353,9.281-13.717,13.899    c-17.377,18.546-30.925,36.966-40.816,53.363c-9.905,16.402-16.246,30.729-20.735,40.914c-4.489,10.177-7.496,16.208-10.413,15.96    c-1.417-0.124-2.632-1.816-3.631-5.036c-0.528-1.614-0.895-3.593-1.189-5.942c-0.14-1.173-0.305-2.447-0.374-3.796    c-0.065-1.348-0.109-2.787-0.131-4.314c-0.023-6.087,0.503-13.571,2.137-22.077c1.6-8.511,4.201-18.075,8.04-28.287    c3.832-10.213,8.961-21.023,15.34-32.095c6.358-11.092,14.117-22.317,23.013-33.504c17.881-22.324,40.651-44.037,67.412-63.109    c13.562-9.45,27.394-17.708,41.319-24.758c13.978-6.958,28.066-12.504,41.751-16.927c6.931-1.989,13.627-4.054,20.329-5.416    c1.663-0.371,3.314-0.74,4.953-1.106c0.819-0.18,1.635-0.36,2.447-0.539c0.823-0.141,1.642-0.281,2.458-0.42    c3.263-0.532,6.475-1.056,9.632-1.572c0.788-0.125,1.573-0.248,2.355-0.372c0.786-0.102,1.574-0.173,2.356-0.259    c1.563-0.161,3.113-0.32,4.648-0.478c1.533-0.151,3.052-0.3,4.556-0.448c1.506-0.128,2.984-0.328,4.472-0.355    c2.96-0.11,5.861-0.217,8.699-0.322c1.415-0.042,2.815-0.084,4.198-0.125c1.385-0.007,2.76,0.056,4.113,0.086    c5.417,0.197,10.545,0.217,15.387,0.829c2.412,0.26,4.756,0.513,7.029,0.759c1.132,0.14,2.247,0.239,3.339,0.416    c1.09,0.194,2.162,0.384,3.216,0.571c4.207,0.786,8.101,1.484,11.644,2.356c3.535,0.961,6.736,1.906,9.587,2.831    c1.424,0.474,2.767,0.895,4.009,1.396c1.24,0.52,2.391,1.029,3.452,1.527c2.123,0.997,3.886,1.95,5.278,2.855    C475.32,53.595,476.619,55.213,476.353,56.611z"/>
		<path style="fill:#FFB400;" d="M150.612,1040.847c-0.915,1.089-2.904,1.177-5.994,0.211c-1.546-0.483-3.242-1.322-5.247-2.39    c-1.012-0.529-1.982-1.194-3.064-1.893c-1.052-0.716-2.233-1.464-3.339-2.352c-9.208-6.9-20.412-19.09-31.362-35.595    c-5.491-8.248-10.995-17.531-16.333-27.737c-5.361-10.276-10.555-21.371-15.474-33.33c-9.847-23.88-18.64-51.152-24.514-80.594    c-3.076-14.711-5.037-29.441-6.227-43.642c-0.661-7.105-0.883-14.118-1.146-20.97c-0.047-6.862-0.142-13.571,0.165-20.107    c0.138-6.539,0.697-12.888,1.146-19.048c0.285-3.075,0.644-6.096,0.971-9.07c0.17-1.485,0.339-2.959,0.507-4.42    c0.177-1.46,0.414-2.899,0.619-4.329c0.436-2.854,0.864-5.659,1.285-8.413c0.435-2.749,0.993-5.423,1.484-8.051    c0.519-2.623,0.988-5.197,1.547-7.695c0.584-2.49,1.155-4.926,1.712-7.305c4.623-18.983,10.016-33.798,14.74-43.702    c4.813-9.885,8.87-14.901,11.611-14.212c2.779,0.698,3.987,7.021,4.044,17.734c0.142,10.728-0.766,25.876-1.54,44.312    c-0.098,2.3-0.199,4.656-0.302,7.064c-0.1,2.404-0.12,4.862-0.202,7.362c-0.054,2.502-0.188,5.046-0.211,7.64    c-0.029,2.589-0.058,5.226-0.088,7.909c-0.012,1.339-0.06,2.689-0.051,4.049c0.013,1.36,0.026,2.73,0.04,4.112    c0.018,2.757,0.036,5.558,0.055,8.401c0.205,5.676,0.236,11.507,0.616,17.464c0.211,5.963,0.753,12.048,1.168,18.26    c0.631,6.199,1.142,12.528,2.008,18.939c1.608,12.842,3.621,26.031,6.454,39.554c5.411,27.142,12.462,52.664,19.779,75.708    c3.645,11.518,7.395,22.439,11.033,32.484c3.675,10.111,7.315,19.418,10.77,27.819c6.903,16.826,13.294,29.862,17.884,38.975    C149.692,1033.108,152.473,1038.561,150.612,1040.847z"/>
		<path style="fill:#FFB400;" d="M848.63,647.904c-1.777,0.073-3.554-0.462-5.303-1.459c-0.875-0.499-1.742-1.113-2.598-1.828    c-0.838-0.715-1.718-1.529-2.616-2.431c-3.443-3.618-7.132-8.569-11.193-14.349c-3.965-5.615-8.685-12.3-13.927-19.724    c-2.671-3.632-5.474-7.445-8.381-11.397c-2.986-3.923-6.079-7.986-9.246-12.146c-3.276-4.096-6.475-8.094-9.564-11.956    c-3.143-3.82-6.175-7.504-9.064-11.014c-5.882-6.97-11.178-13.246-15.627-18.518c-4.519-5.382-8.301-10.069-10.926-14.236    c-1.291-2.174-2.308-4.071-2.877-6.017c-0.571-1.922-0.708-3.776-0.254-5.496s1.484-3.224,3.137-4.481    c1.64-1.236,3.961-2.328,6.776-2.883c5.699-1.284,13.69-0.876,22.744,1.78c9.025,2.657,19.002,7.56,28.733,14.507    c4.829,3.495,9.635,7.472,14.258,11.906c4.604,4.467,9.009,9.296,13.283,14.7c4.199,5.454,7.833,10.915,11.054,16.497    c3.19,5.593,5.873,11.277,8.081,16.854c4.32,11.245,6.58,22.158,6.813,31.537c0.247,9.389-1.295,17.071-3.884,22.224    c-0.61,1.285-1.287,2.418-2.047,3.399c-0.741,0.978-1.512,1.797-2.308,2.456C852.101,647.15,850.407,647.832,848.63,647.904z"/>
	</g>
	<path style="fill:#FFB400;" d="M234.003,464.942c0.157,5.733-7.043,10.964-18.127,15.84c-5.561,2.43-12.132,4.83-19.458,7.11   c-7.317,2.296-15.442,4.524-24.038,6.535c-17.223,4.07-33.139,6.572-45.189,7.043c-6.041,0.229-11.142-0.037-15.097-0.965   c-3.953-0.94-6.787-2.533-8.057-5.1c-1.254-2.534-0.744-5.845,1.508-9.549c2.242-3.71,6.21-7.787,11.574-11.74   c10.741-7.939,26.945-15.358,45.806-19.813c9.453-2.213,18.645-3.479,27.165-3.864c8.517-0.366,16.291,0.124,22.816,1.345   c6.529,1.215,11.79,3.082,15.407,5.377C231.935,459.446,233.911,462.106,234.003,464.942z"/>
</g>

            </g>
        </g>
    </g>
    
    <!-- ITEM 3 -->
    <g>
        <defs>
            <clipPath id="clip-path-id-viewbox-item-3">
                <rect x="0.0" y="0.0" width="1128.04" height="2065.96"/>
            </clipPath>
        </defs>
        <g transform="translate(814.0 431.0) rotate(0.0 232.0 424.5) scale(0.4113329314563314 0.41094696896358107)">
            <g clip-path="url(#clip-path-id-viewbox-item-3)" transform="translate(-0.0 -0.0)">
                
<g>
	<rect x="278.419" y="1812.44" style="fill:#FFB400;" width="160.704" height="160.704"/>
	<rect x="691.411" y="1812.44" style="fill:#FFB400;" width="160.704" height="160.704"/>
	<path style="fill:#04294F;" d="M880.662,1350.372c0.492,2.242-0.909,4.46-3.132,4.988l-0.047,0.011   c-25.796,6.105-51.753,10.318-77.773,13.805c-26.04,3.293-52.136,5.702-78.243,7.611c-26.107,2.012-52.247,3.034-78.374,3.843   c-26.132,0.861-52.253,1.134-78.376,1.303c-26.121-0.178-52.244-0.442-78.374-1.303c-26.126-0.8-52.267-1.837-78.371-3.838   c-26.107-1.906-52.203-4.299-78.24-7.589c-26.018-3.474-51.978-7.672-77.773-13.744l-0.042-0.011   c-2.248-0.528-3.643-2.781-3.112-5.03c0.522-2.215,2.718-3.596,4.932-3.132c-2.109-0.467-4.154-1.117-6.108-1.862   c0,34.932,0,96.022,0,196.34c0,148.466,11.977,244.989,16.734,277.492c1.048,7.116,5.735,13.03,12.277,15.82   c0.636,0.272,1.27,0.55,1.94,0.759c14.805,4.574,42.396,11.135,79.63,11.135c37.948,0,67.25-6.811,82.739-11.415   c0.681-0.2,1.325-0.472,1.97-0.739c6.589-2.712,11.321-8.703,12.371-15.842c4.199-29.208,13.53-81.372,13.53-246.108   c0-10.607,0-20.624,0-30.111c0-59.255,191.238-57.016,191.238,0c0,9.395,0,19.41,0,30.111c0,148.466,11.977,213.882,16.734,246.389   c1.15,7.808,6.655,14.217,14.214,16.578c0.111,0.033,0.239,0.072,0.353,0.106c14.886,4.568,42.324,11.029,79.28,11.029   c37.947,0,67.25-6.811,82.742-11.415c1.517-0.444,2.923-1.103,4.26-1.865c5.374-3.059,9.156-8.439,10.079-14.717   c4.199-29.208,13.53-112.478,13.53-277.214c0-104.358,0-163.305,0-196.306c-1.795,0.711-3.654,1.27-5.574,1.703   C877.936,1346.679,880.167,1348.11,880.662,1350.372z"/>
	<path style="fill:#F04E23;" d="M907.169,1108.539c-0.701,32.959-2.182,65.918-4.48,98.877c-3.35,48.425-8.454,96.89-15.233,145.315   c-1.247,8.61-9.233,16.518-17.843,17.609c-203.441,25.557-406.882,25.557-610.362,0c-8.571-1.091-16.596-8.999-17.804-17.609   c-6.857-48.737-11.96-97.435-15.311-146.172c-2.299-32.998-3.779-65.996-4.48-98.993c-0.662-33.504-0.545-67.048,0.428-100.552   v-0.039c2.182-76.281,8.61-152.6,19.362-228.881c1.208-8.61,9.233-16.518,17.804-17.609c203.48-25.557,406.921-25.557,610.362,0   c8.61,1.091,16.596,8.999,17.843,17.609c6.818,48.503,11.921,97.006,15.272,145.51c1.909,27.271,3.234,54.581,4.013,81.852   c0.039,0.623,0.039,1.247,0.078,1.831C907.792,1041.063,907.909,1074.801,907.169,1108.539z"/>
	<g>
		<path style="fill:#FFFFFF;" d="M772.617,1911.016c-39.959,1.515-64.546,5.049-79.679,8.631l-0.998,0.322    c-2.924,1.18-4.649,4.221-4.16,7.337c1.687,9.769,2.748,19.433,3.605,28.997c1.126-0.674,2.313-1.241,3.545-1.693    c11.377-3.935,34.349-8.743,80.534-10.392c44.078-1.677,67.257,2.432,79.358,6.709c0.574-9.145,1.018-18.206,1.006-27.11    c0.03-3.37-1.85-6.468-4.855-7.996c-0.736-0.382-1.516-0.671-2.323-0.863C833.361,1911.633,809.302,1909.533,772.617,1911.016z"/>
		<path style="fill:#F04E23;" d="M775.509,1944.142c-46.122,1.747-69.094,6.556-80.534,10.392    c-6.489,2.391-11.425,7.766-13.255,14.435c-1.342,5.094-2.436,10.212-3.411,15.3c-1.553,7.922-2.768,15.719-3.653,23.812    s-1.614,15.853-1.87,23.77c-0.189,3.65-0.107,8.935,0.015,13.637c0.162,5.823,4.588,10.637,10.376,11.289    c31.088,3.349,129.995,11.645,235.675-3.711c0,0,9.475-1.496,9.042-16.208c-0.273-11.242-0.17-17.389-20.784-31.655    c-0.272,0.132-0.566,0.212-0.868,0.237l0,0c-6.93,0.265-13.791,0.207-20.492,0.324c-6.701,0.117-13.347,0.105-19.973,0.266    c-6.626,0.161-13.22,0.301-19.931,0.331c-6.945,0.035-13.884-0.385-20.774-1.257l0,0c-1.079-0.201-1.79-1.239-1.589-2.317    c0.006-0.034,0.014-0.068,0.022-0.102c0.096-0.545,0.391-1.034,0.829-1.372c6.111-4.082,12.923-6.999,20.094-8.607    c7.096-1.722,14.386-2.512,21.686-2.351c7.232,0.069,14.435,0.929,21.481,2.563l1.755,0.488    c-4.246-2.542-8.932-5.261-14.134-8.204l0,0c-0.224-1.062-0.372-2.08-0.629-3.12c-0.467-2.297-0.999-4.552-1.531-6.806    c-6.432,0.175-12.797,0.166-19.023,0.3c-6.226,0.134-13.368,0.072-19.994,0.233c-6.626,0.161-13.22,0.301-19.931,0.331    c-6.945,0.063-13.887-0.357-20.774-1.257l0,0c-1.115-0.238-1.827-1.335-1.589-2.45l0-0.002c0.081-0.548,0.389-1.035,0.85-1.34    c6.093-4.108,12.901-7.039,20.073-8.64c7.058-1.653,14.298-2.396,21.544-2.212c7.231,0.094,14.431,0.954,21.481,2.563    c5.411,1.25,10.68,3.047,15.728,5.362l-0.804-2.961c-1.699-5.987-5.975-10.907-11.667-13.424c-1.031-0.446-2.15-0.882-3.387-1.287    C842.701,1946.617,819.522,1942.507,775.509,1944.142z M742.966,2004.4c-0.23,17.416-10.993,31.398-24.121,31.268    s-23.605-14.37-23.376-31.786c0.23-17.416,10.939-31.409,24.088-31.247c13.149,0.163,23.442,14.476,23.343,31.807L742.966,2004.4z    "/>
		<path style="fill:#04294F;" d="M833.449,1960.64c-7.246-0.184-14.486,0.559-21.544,2.212c-7.172,1.601-13.98,4.531-20.073,8.64    c-0.461,0.306-0.769,0.793-0.85,1.339c-0.239,1.115,0.471,2.213,1.586,2.452l0.002,0l0.001,0c6.887,0.9,13.829,1.32,20.774,1.257    c6.711-0.03,13.326-0.138,19.931-0.331c6.605-0.194,13.283-0.203,19.994-0.233c6.711-0.03,12.591-0.126,19.023-0.3l1.416-0.035    l0.163-0.106c1.352-0.092,2.374-1.263,2.282-2.615c-0.053-0.774-0.468-1.477-1.12-1.897c-1.522-0.917-3.068-1.726-4.625-2.482    c-5.048-2.315-10.317-4.111-15.728-5.362C847.712,1961.594,840.596,1960.743,833.449,1960.64z"/>
		<path style="fill:#04294F;" d="M865.569,1990.661c-7.3-0.162-14.59,0.629-21.686,2.351c-7.171,1.607-13.983,4.525-20.094,8.607    c-0.437,0.338-0.733,0.828-0.829,1.372c-0.258,1.067,0.398,2.14,1.465,2.398c0.034,0.008,0.068,0.016,0.102,0.022l0,0    c6.89,0.873,13.829,1.293,20.774,1.257c6.711-0.031,13.326-0.138,19.931-0.331c6.605-0.194,13.283-0.203,19.973-0.266    s13.562-0.059,20.492-0.324l0,0c0.301-0.025,0.596-0.105,0.868-0.237c0.476-0.127,0.899-0.401,1.21-0.784    c0.695-1.158,0.324-2.66-0.831-3.361c-5.832-3.333-12.119-5.797-18.663-7.313l-1.755-0.488    C879.664,1991.852,872.638,1990.879,865.569,1990.661z"/>
		
			<ellipse transform="matrix(0.0104 -0.9999 0.9999 0.0104 -1306.8345 2694.2217)" style="fill:#FFFFFF;" cx="707.778" cy="2007.36" rx="31.382" ry="23.662"/>
	</g>
	<g>
		<path style="fill:#FFFFFF;" d="M356.691,1914.482c39.981,0.738,64.632,3.793,79.832,7.081l1.005,0.302    c2.947,1.123,4.73,4.13,4.302,7.254c-1.496,9.8-2.37,19.483-3.041,29.062c-1.139-0.652-2.337-1.196-3.577-1.624    c-11.451-3.713-34.512-8.074-80.721-8.825c-44.103-0.82-67.197,3.739-79.212,8.251c-0.752-9.132-1.372-18.182-1.533-27.085    c-0.095-3.369,1.724-6.502,4.698-8.089c0.729-0.396,1.503-0.701,2.306-0.908C295.971,1916.28,319.985,1913.712,356.691,1914.482z"/>
		<path style="fill:#F04E23;" d="M274.529,1955.564c-1.229,0.429-2.339,0.887-3.361,1.353c-5.642,2.627-9.821,7.629-11.403,13.648    l-0.746,2.976c5.002-2.413,10.235-4.311,15.621-5.667c7.017-1.747,14.2-2.745,21.427-2.98c7.241-0.325,14.495,0.277,21.583,1.793    c7.201,1.461,14.066,4.259,20.237,8.248c0.466,0.297,0.785,0.778,0.876,1.324l0,0.002c0.259,1.11-0.431,2.221-1.541,2.48l0,0    c-6.868,1.034-13.8,1.589-20.746,1.661c-6.71,0.1-13.305,0.088-19.933,0.056c-6.628-0.032-13.767,0.168-19.995,0.155    s-12.591,0.119-19.025,0.07c-0.488,2.265-0.977,4.529-1.399,6.835c-0.236,1.046-0.365,2.066-0.568,3.132l0,0    c-5.144,3.044-9.776,5.854-13.972,8.478l1.745-0.522c7.012-1.771,14.198-2.771,21.427-2.98c7.296-0.303,14.6,0.345,21.728,1.929    c7.201,1.468,14.068,4.252,20.257,8.214c0.444,0.33,0.749,0.813,0.855,1.356c0.009,0.034,0.017,0.068,0.024,0.102    c0.222,1.075-0.469,2.126-1.544,2.348l0,0c-6.872,1.007-13.802,1.561-20.746,1.661c-6.71,0.1-13.305,0.089-19.933,0.056    c-6.628-0.032-13.272,0.109-19.974,0.122s-13.561,0.205-20.495,0.074l0,0c-0.302-0.019-0.597-0.094-0.872-0.22    c-20.332,14.664-20.11,20.808-20.165,32.053c-0.147,14.718,9.356,16.03,9.356,16.03c105.959,13.298,204.686,3.081,235.703-0.872    c5.775-0.764,10.106-5.663,10.155-11.488c0.03-4.704,0.009-9.99-0.25-13.635c-0.41-7.911-1.289-15.655-2.331-23.729    c-1.042-8.074-2.409-15.846-4.115-23.736c-1.073-5.068-2.267-10.164-3.708-15.23c-1.959-6.632-6.999-11.91-13.533-14.175    c-11.513-3.613-34.574-7.974-80.721-8.825C310.408,1946.879,287.313,1951.438,274.529,1955.564z M388.219,2007.313    c-0.436-17.326,9.577-31.837,22.72-32.255c13.143-0.418,24.123,13.364,24.691,30.773s-9.631,31.85-22.753,32.235    c-13.123,0.385-24.156-13.385-24.724-30.793L388.219,2007.313z"/>
		<path style="fill:#04294F;" d="M296.836,1965.279c7.241-0.325,14.495,0.277,21.583,1.793c7.201,1.461,14.066,4.259,20.237,8.248    c0.466,0.297,0.785,0.778,0.876,1.323c0.261,1.11-0.428,2.221-1.538,2.482l-0.002,0l-0.001,0    c-6.868,1.034-13.8,1.589-20.746,1.661c-6.71,0.1-13.326,0.122-19.933,0.056c-6.608-0.065-13.285,0.055-19.995,0.155    c-6.71,0.1-12.591,0.119-19.025,0.07l-1.416-0.008l-0.165-0.103c-1.354-0.066-2.398-1.217-2.332-2.571    c0.038-0.775,0.439-1.486,1.083-1.918c1.504-0.946,3.034-1.785,4.576-2.571c5.002-2.413,10.235-4.311,15.621-5.667    C282.594,1966.51,289.692,1965.522,296.836,1965.279z"/>
		<path style="fill:#04294F;" d="M265.306,1995.919c7.296-0.303,14.6,0.345,21.728,1.929c7.201,1.468,14.068,4.252,20.257,8.214    c0.444,0.33,0.749,0.813,0.855,1.356c0.278,1.061-0.357,2.147-1.418,2.426c-0.034,0.009-0.068,0.017-0.102,0.024l0,0    c-6.872,1.007-13.802,1.561-20.746,1.661c-6.71,0.1-13.326,0.121-19.933,0.056c-6.608-0.065-13.285,0.055-19.974,0.122    s-13.561,0.205-20.495,0.074l0,0c-0.302-0.019-0.597-0.094-0.872-0.22c-0.478-0.118-0.907-0.384-1.225-0.76    c-0.717-1.144-0.375-2.653,0.766-3.376c5.766-3.446,12.004-6.031,18.517-7.675l1.745-0.522    C251.236,1997.384,258.242,1996.275,265.306,1995.919z"/>
		
			<ellipse transform="matrix(0.9996 -0.0298 0.0298 0.9996 -59.7757 13.5287)" style="fill:#FFFFFF;" cx="423.391" cy="2009.547" rx="23.662" ry="31.382"/>
	</g>
	<path style="fill:#FFB400;" d="M235.798,1353.587c-13.051,3.195-127.589,0-160.158,7.909c-32.53,7.908-51.776-49.75-51.776-49.75   c-26.842-81.813-30.894-169.703-12.895-253.152c2.221,1.558,4.714,2.727,7.48,3.428c48.153,12.155,98.877,16.713,152.172,13.635   c0.234,0,0.506-0.039,0.74-0.078c-16.324,60.853-15.194,127.043,4.285,186.377C197.541,1298.734,231.668,1319.615,235.798,1353.587   z"/>
	<path style="fill:#F04E23;" d="M1111.506,1062.918c-47.997,14.103-99.383,18.505-154.081,13.09   c-9.506-0.935-17.414-7.597-20.102-16.752c-1.597-5.415-3.74-10.986-6.506-16.674c-5.649-11.922-13.791-24.427-24.076-37.128   c-0.117-0.156-0.234-0.312-0.39-0.467c-21.739-26.803-53.022-54.503-91.202-80.06C733.92,872.1,649.77,845.336,565.152,845.336   h-1.169c-83.683,0-167.638,27.232-249.84,80.994c-38.608,25.946-70.203,53.88-92.059,80.644v0.039   c-0.428,0.467-0.779,0.857-1.091,1.324c-7.753,9.545-14.22,18.973-19.323,28.05c0,0,0,0,0,0.039   c-4.363,7.792-7.714,15.311-9.973,22.557c-2.922,9.389-11.22,16.129-21.076,16.674c-53.295,3.078-104.019-1.48-152.172-13.635   c-11.766-3-19.245-14.687-17.142-26.648C22.54,915.11,124.143,823.909,208.215,767.536l0.896-0.623   c113.953-74.644,233.244-112.473,354.56-112.473h1.753c122.135,0,241.464,37.283,354.405,110.837l0.935,0.623   c84.384,56.373,186.455,148.159,206.947,270.761C1129.66,1048.231,1122.765,1059.607,1111.506,1062.918z"/>
	<path style="fill:#FFB400;" d="M252.408,1284.694c8.08,5.622,12.558,15.369,13.796,25.134c1.238,9.765-0.397,19.656-2.417,29.29   c-2.405,11.472-6.126,23.93-16.032,30.196c-11.801,7.465-28.7,2.343-37.059-8.844c-8.358-11.187-9.295-26.565-5.783-40.081   C210.088,1300.469,226.564,1266.71,252.408,1284.694z"/>
	<path style="fill:#FFB400;" d="M204.049,1256.116c16.036,5.689,26.832,21.557,30.6,38.15c6.125,26.969-4.936,57.062-27.068,73.644   c-10.882,8.154-25.518,13.144-38.171,8.163c-12.536-4.935-19.912-18.578-21.302-31.978c-2.101-20.255,4.91-47.875,11.456-67.212   C166.807,1255.486,185.665,1256.116,204.049,1256.116z"/>
	<path style="fill:#FFB400;" d="M129.82,1256.839c-13.98-6.837-33.942-3.607-40.619,10.45c-3.552,7.478-2.75,16.201-1.871,24.433   c1.869,17.506,3.739,35.011,5.608,52.517c0.516,4.831,1.053,9.747,2.975,14.209c6.095,14.154,25.42,19.2,39.472,12.873   c14.051-6.327,22.78-21.15,25.771-36.268C167.037,1305.329,159.286,1271.249,129.82,1256.839z"/>
	<path style="fill:#FFB400;" d="M42.605,1308.828c-2.935,10.954,1.149,22.473,5.704,32.858c3.876,8.835,8.292,17.712,15.339,24.302   c7.047,6.589,17.283,10.531,26.53,7.778c8.867-2.64,15.245-11.096,17.042-20.171c3.213-16.23-9.107-42.569-18.826-55.792   C75.781,1280.643,47.799,1289.443,42.605,1308.828z"/>
	<path style="fill:#F04E23;" d="M176.07,1259.013c0.306,0.905-0.859,2.146-2.456,4.003c-1.617,1.858-3.776,4.411-6.02,7.464   c-4.538,6.04-7.754,11.614-9.561,11.067c-1.745-0.45-1.136-7.902,4.194-15.063c2.603-3.549,5.89-6.162,8.682-7.351   C173.73,1257.915,175.803,1258.168,176.07,1259.013z"/>
	<path style="fill:#F04E23;" d="M207.582,1367.91c-0.623-0.828,3.483-4.529,8.719-11.384c5.227-6.82,11.274-17.219,14.444-29.854   c3.272-12.614,2.815-24.606,1.319-33.047c-1.524-8.461-3.64-13.586-2.754-14.034c0.728-0.422,4.457,4.047,7.346,12.894   c2.843,8.758,4.164,22.034,0.574,35.836c-3.463,13.828-10.831,24.862-17.36,31.313   C213.292,1366.158,208.032,1368.572,207.582,1367.91z"/>
	<path style="fill:#F04E23;" d="M89.2,1267.289c-0.318-0.112,0.102-2.895,3.206-6.758c3.011-3.863,9.428-8.113,18.243-9.291   c4.38-0.589,9.31-0.444,14.42,0.834c2.491,0.724,5.216,1.619,7.565,2.963c1.205,0.642,2.428,1.293,3.668,1.954   c1.213,0.708,2.361,1.564,3.567,2.362c9.642,6.465,17.627,17.246,22.03,29.744c4.249,12.593,4.962,25.358,3.7,36.572   c-0.291,2.815-0.711,5.538-1.257,8.159c-0.437,2.625-1.182,5.206-1.911,7.628c-1.579,4.842-3.618,9.155-5.892,12.836   c-4.556,7.391-10.036,12.098-14.185,14.487c-4.171,2.424-6.824,2.904-6.972,2.543c-0.221-0.48,2.025-1.771,5.463-4.666   c3.433-2.869,7.915-7.657,11.585-14.709c1.831-3.516,3.455-7.571,4.681-12.065c0.557-2.275,1.125-4.573,1.44-7.09   c0.417-2.485,0.72-5.054,0.91-7.701c0.864-10.55-0.029-22.362-3.881-33.793c-4.029-11.329-10.895-20.903-19.319-26.945   c-1.058-0.743-2.055-1.551-3.122-2.225c-1.095-0.635-2.175-1.262-3.239-1.88c-2.117-1.33-4.205-2.07-6.342-2.834   c-4.299-1.301-8.58-1.7-12.434-1.465c-7.763,0.477-13.63,3.496-16.854,6.403C90.963,1265.238,89.707,1267.551,89.2,1267.289z"/>
	<path style="fill:#F04E23;" d="M63.649,1365.988c-0.56,0.655-3.986-1.067-7.951-5.582c-4.008-4.468-8.079-11.646-11.471-19.746   c-3.531-8.126-5.409-16.478-4.936-22.608c0.389-6.163,2.525-9.5,3.314-9.224c0.96,0.268,0.599,3.762,1.414,9.044   c0.732,5.305,2.997,12.375,6.374,20.188c3.325,7.924,6.439,14.84,9.157,19.597C62.208,1362.444,64.309,1365.262,63.649,1365.988z"/>
	<path style="fill:#F04E23;" d="M66.714,1288.834c-0.056-0.423,1.46-1.166,4.472-1.466c2.959-0.24,7.62,0.049,12.596,2.858   c2.447,1.402,4.89,3.463,6.939,6.064c1.909,2.446,3.807,5.144,5.627,8.079c3.624,5.877,7.092,12.643,9.848,20.165   c2.76,7.506,4.532,15.107,4.612,22.369c0.038,7.39-2.523,13.979-5.885,18.308c-3.327,4.438-7.217,6.94-10.058,7.984   c-2.862,1.071-4.58,0.971-4.687,0.572c-0.415-0.982,6.025-2.933,10.805-11.176c2.398-4.048,3.983-9.422,3.66-15.543   c-0.38-6.215-2.128-13.16-4.731-20.211c-2.585-7.063-5.727-13.603-8.879-19.341c-1.585-2.869-3.205-5.516-4.79-7.927   c-1.486-2.23-3.211-4.003-5.03-5.368c-3.671-2.711-7.495-3.695-10.148-4.23C68.383,1289.476,66.771,1289.322,66.714,1288.834z"/>
	<path style="fill:#F04E23;" d="M214.966,1286.191c-1.362,1.344-7.611-3.018-16.337-4.82c-8.676-2.031-16.179-0.698-16.85-2.49   c-0.292-0.831,1.372-2.383,4.707-3.53c3.302-1.153,8.301-1.672,13.583-0.515c5.28,1.17,9.597,3.741,12.109,6.174   C214.723,1283.452,215.58,1285.559,214.966,1286.191z"/>
	<path style="fill:#F04E23;" d="M208.476,1303.632c-1.778,0.619-4.658-2.544-9.208-4.211c-4.452-1.913-8.718-1.591-9.586-3.261   c-0.355-0.805,0.54-2.206,2.806-3.159c2.224-0.959,5.791-1.174,9.252,0.202c3.461,1.376,5.906,3.981,6.865,6.205   C209.598,1301.657,209.286,1303.291,208.476,1303.632z"/>
	<path style="fill:#F04E23;" d="M128.014,1276.191c-0.243,1.883-6.292,2.624-12.294,6.292c-6.123,3.462-9.711,8.388-11.475,7.685   c-0.808-0.355-0.944-2.316,0.262-5.059c1.177-2.721,3.872-6.067,7.821-8.395c3.953-2.319,8.187-3.049,11.138-2.755   C126.449,1274.241,128.097,1275.313,128.014,1276.191z"/>
	
		<ellipse transform="matrix(0.9326 -0.3609 0.3609 0.9326 -457.2555 132.3582)" style="fill:#F04E23;" cx="125.807" cy="1290.64" rx="9.767" ry="3.346"/>
	<path style="fill:#F04E23;" d="M67.715,1305.873c-0.126,1.88-3.578,3.31-6.518,6.259c-3.102,2.777-4.716,6.148-6.599,6.173   c-0.885-0.05-1.725-1.33-1.656-3.548c0.047-2.185,1.22-5.177,3.652-7.482c2.432-2.305,5.483-3.316,7.667-3.246   C66.48,1304.079,67.712,1304.987,67.715,1305.873z"/>
	<path style="fill:#F04E23;" d="M74.216,1317.714c0.078,1.88-3.283,3.554-6.842,5.708c-3.619,2.051-6.723,4.164-8.325,3.176   c-0.747-0.512-0.862-1.891-0.074-3.659c0.772-1.755,2.519-3.826,5.016-5.291c2.5-1.462,5.161-1.973,7.069-1.787   C72.988,1316.037,74.135,1316.812,74.216,1317.714z"/>
	
		<ellipse transform="matrix(0.7338 -0.6794 0.6794 0.7338 -819.2784 520.2271)" style="fill:#F04E23;" cx="254.2" cy="1305.559" rx="3.346" ry="7.12"/>
	
		<ellipse transform="matrix(0.9137 -0.4065 0.4065 0.9137 -514.8129 215.6783)" style="fill:#F04E23;" cx="250.311" cy="1319.735" rx="3.346" ry="7.417"/>
	<path style="fill:#FFB400;" d="M709.918,791.823c-97.852,10.714-195.704,10.714-293.556,0c-45.85-5.4-87.851-49.762-91.859-95.508   c-7.48-93.176-9.716-186.352-6.709-279.528c5.035-109.104,108.033-218.674,217.783-222.475c18.375-0.378,36.751-0.378,55.126,0   c109.749,3.801,212.749,113.371,217.783,222.475c3.007,93.176,0.771,186.352-6.709,279.528   C797.768,742.062,755.768,786.421,709.918,791.823z"/>
	<path style="fill:#04294F;" d="M843.196,243.146c-5.668-44.533-11.335-89.065-17.003-133.598c-0.57-4.48-7.029-4.563-7.715-0.1   l-2.667,17.34c-0.557,3.622-5.34,4.536-7.182,1.367C777.862,75.229,727.714,32.393,668.828,7.945   c-8.154-3.385-14.751,7.337-8.08,13.12l1.011,0.877c3.142,2.724,0.406,7.804-3.594,6.669   C570.169,3.645,476.948-5.066,385.377,2.808c-12.741,1.096-14.68,18.816-2.527,22.795c14.834,4.856,29.069,11.298,42.298,19.219   c3.307,1.98,1.946,7.078-1.906,7.2c-88.226,2.803-174.658,39.329-235.748,98.78c-8.228,8.007-1.017,21.864,10.285,19.844   c12.895-2.304,25.79-4.609,38.684-6.913c4.213-0.753,6.343,4.792,2.751,7.119c-54.059,35.01-90.71,93.111-96.138,154.464   c-4.903,55.419,16.615,118.949,59.309,160.192c7.548,7.292,20.246,1.482,19.685-8.998c-2.772-51.8,20.353-117.88,66.298-143.625   c75.77-42.458,135.425,41.289,207.055,30.979c19.253-2.771,35.71-14.007,53.688-21.015   c58.923-22.967,119.496,15.963,141.413,71.982c9.795,25.037,9.609,52.335,11.236,78.948c1.086,17.751,0.835,49.005,0.547,67.851   c-0.132,8.653,6.823,15.72,15.477,15.745c3.756,0.011,7.767,0.027,11.534,0.051c8.599,0.056,15.593-6.871,15.619-15.471   c0.05-16.255,0.209-40.347,0.496-51.615c0.667-17.399,15.538-35.391,31.572-35.637c16.034,0.246,30.905,18.238,31.572,35.637   c0.439,17.271-0.046,34.542-1.457,51.813c-0.03,0.352-0.094,0.703-0.183,1.049c0.155,10.698-0.035,21.396-0.544,32.095   c2.715-0.73,5.392-1.64,7.98-2.874c28.887-13.779,34.043-49.607,35.569-79.873c4.652-92.274,9.304-184.547,13.956-276.821   c0.207-4.109-5.269-5.692-7.286-2.106c-2.052,3.647-4.103,7.294-6.155,10.941C848.616,247.835,843.67,246.868,843.196,243.146z"/>
	<g>
		<path style="fill:#FFB400;" d="M1100.831,1311.746c0,0-12.389,37.089-34.05,47.685c-5.376,2.61-11.298,3.623-17.726,2.065    c-5.026-1.208-12.038-2.182-20.297-2.922c-3.194-0.312-6.584-0.546-10.09-0.818c-13.48-0.896-29.18-1.402-44.919-1.753    c-0.584,0-1.208-0.039-1.792-0.039c-19.674-0.389-39.309-0.545-54.659-0.857c-4.948-0.078-9.467-0.195-13.402-0.351    c-7.402-0.234-12.739-0.623-14.999-1.169c0.74-5.961,2.376-11.532,4.753-16.869c4.792-10.831,12.467-20.648,21.077-30.777    c2.454-2.844,4.987-5.727,7.519-8.688c5.376-6.156,10.869-12.584,16.09-19.518c3.779-4.948,7.402-10.168,10.714-15.778    c0.273-0.818,0.545-1.636,0.779-2.454v-0.039c16.207-51.308,19.557-125.641,6.272-183.611c0.428,0.039,0.857,0.117,1.324,0.156    c54.698,5.415,106.084,1.013,154.081-13.09c1.831-0.545,3.545-1.286,5.104-2.182    C1129.855,1140.446,1124.284,1240.296,1100.831,1311.746z"/>
		<path style="fill:#FFB400;" d="M872.285,1284.694c-8.08,5.622-12.558,15.369-13.796,25.134c-1.238,9.765,0.397,19.656,2.417,29.29    c2.405,11.472,6.126,23.93,16.032,30.196c11.801,7.465,28.701,2.343,37.059-8.844s9.295-26.565,5.783-40.081    C914.605,1300.469,898.128,1266.71,872.285,1284.694z"/>
		<path style="fill:#FFB400;" d="M920.643,1256.116c-16.036,5.689-26.832,21.557-30.6,38.15    c-6.125,26.969,4.936,57.062,27.068,73.644c10.882,8.154,25.518,13.144,38.171,8.163c12.536-4.935,19.912-18.578,21.302-31.978    c2.101-20.255-4.91-47.875-11.456-67.212C957.885,1255.486,939.027,1256.116,920.643,1256.116z"/>
		<path style="fill:#FFB400;" d="M994.873,1256.839c13.98-6.837,33.942-3.607,40.62,10.45c3.552,7.478,2.75,16.201,1.871,24.433    c-1.869,17.506-3.739,35.011-5.608,52.517c-0.516,4.831-1.053,9.747-2.975,14.209c-6.095,14.154-25.42,19.2-39.472,12.873    c-14.051-6.327-22.78-21.15-25.771-36.268C957.656,1305.329,965.407,1271.249,994.873,1256.839z"/>
		<path style="fill:#FFB400;" d="M1082.087,1308.828c2.935,10.954-1.149,22.473-5.704,32.858    c-3.876,8.835-8.292,17.712-15.339,24.302c-7.047,6.589-17.283,10.531-26.53,7.778c-8.867-2.64-15.245-11.096-17.042-20.171    c-3.213-16.23,9.107-42.569,18.826-55.792C1048.912,1280.643,1076.894,1289.443,1082.087,1308.828z"/>
		<path style="fill:#F04E23;" d="M948.622,1259.013c0.267-0.845,2.341-1.099,5.161,0.121c2.793,1.189,6.08,3.802,8.683,7.351    c5.329,7.161,5.938,14.612,4.193,15.063c-1.807,0.547-5.023-5.027-9.561-11.067c-2.244-3.053-4.403-5.606-6.02-7.464    C949.481,1261.159,948.316,1259.918,948.622,1259.013z"/>
		<path style="fill:#F04E23;" d="M917.111,1367.91c-0.45,0.662-5.711-1.752-12.288-8.277c-6.53-6.45-13.897-17.485-17.361-31.313    c-3.59-13.802-2.27-27.078,0.574-35.836c2.89-8.847,6.618-13.317,7.346-12.894c0.886,0.449-1.23,5.573-2.754,14.034    c-1.496,8.44-1.953,20.433,1.319,33.047c3.169,12.635,9.216,23.035,14.444,29.854    C913.628,1363.38,917.734,1367.082,917.111,1367.91z"/>
		<path style="fill:#F04E23;" d="M1035.492,1267.289c-0.507,0.261-1.763-2.052-5.069-4.938c-3.224-2.908-9.092-5.927-16.854-6.403    c-3.854-0.234-8.135,0.164-12.434,1.465c-2.137,0.764-4.224,1.504-6.342,2.834c-1.064,0.618-2.144,1.245-3.239,1.88    c-1.067,0.674-2.065,1.483-3.122,2.225c-8.424,6.041-15.291,15.616-19.319,26.945c-3.853,11.431-4.746,23.243-3.882,33.793    c0.19,2.647,0.494,5.217,0.911,7.701c0.314,2.517,0.883,4.816,1.44,7.09c1.225,4.494,2.85,8.549,4.68,12.065    c3.67,7.052,8.151,11.84,11.585,14.709c3.437,2.896,5.684,4.187,5.463,4.666c-0.147,0.361-2.801-0.119-6.972-2.543    c-4.149-2.389-9.629-7.096-14.185-14.487c-2.274-3.681-4.313-7.994-5.892-12.836c-0.729-2.422-1.474-5.003-1.911-7.628    c-0.546-2.621-0.966-5.344-1.257-8.159c-1.262-11.214-0.548-23.979,3.7-36.572c4.403-12.497,12.388-23.278,22.03-29.744    c1.206-0.798,2.355-1.653,3.567-2.362c1.239-0.66,2.462-1.312,3.668-1.954c2.349-1.344,5.074-2.239,7.565-2.963    c5.111-1.278,10.04-1.423,14.42-0.834c8.815,1.178,15.232,5.428,18.243,9.291    C1035.39,1264.394,1035.81,1267.177,1035.492,1267.289z"/>
		<path style="fill:#F04E23;" d="M1061.044,1365.988c-0.66-0.725,1.441-3.544,4.1-8.331c2.717-4.757,5.832-11.673,9.156-19.597    c3.377-7.813,5.641-14.883,6.374-20.188c0.815-5.281,0.454-8.775,1.414-9.044c0.79-0.276,2.925,3.061,3.314,9.224    c0.473,6.13-1.406,14.482-4.936,22.608c-3.392,8.1-7.463,15.278-11.471,19.746    C1065.03,1364.921,1061.604,1366.642,1061.044,1365.988z"/>
		<path style="fill:#F04E23;" d="M1057.978,1288.834c-0.056,0.488-1.668,0.642-4.351,1.136c-2.654,0.535-6.477,1.519-10.149,4.23    c-1.819,1.365-3.544,3.138-5.029,5.368c-1.585,2.411-3.205,5.058-4.79,7.927c-3.152,5.738-6.294,12.278-8.879,19.341    c-2.603,7.051-4.351,13.997-4.731,20.211c-0.323,6.121,1.262,11.495,3.66,15.543c4.78,8.244,11.22,10.194,10.805,11.176    c-0.107,0.4-1.825,0.499-4.687-0.572c-2.841-1.044-6.731-3.546-10.058-7.984c-3.362-4.329-5.923-10.918-5.885-18.308    c0.079-7.261,1.852-14.863,4.612-22.369c2.756-7.522,6.224-14.288,9.848-20.165c1.82-2.935,3.719-5.633,5.628-8.079    c2.048-2.601,4.492-4.662,6.939-6.064c4.976-2.809,9.637-3.098,12.596-2.858    C1056.518,1287.668,1058.034,1288.411,1057.978,1288.834z"/>
		<path style="fill:#F04E23;" d="M909.726,1286.191c-0.614-0.631,0.243-2.739,2.788-5.181c2.512-2.434,6.83-5.005,12.109-6.174    c5.282-1.157,10.28-0.638,13.583,0.515c3.335,1.147,4.998,2.699,4.707,3.53c-0.672,1.792-8.175,0.459-16.85,2.49    C917.337,1283.172,911.088,1287.534,909.726,1286.191z"/>
		<path style="fill:#F04E23;" d="M916.217,1303.632c-0.811-0.341-1.123-1.975-0.129-4.224c0.959-2.225,3.404-4.83,6.865-6.205    c3.461-1.376,7.027-1.161,9.252-0.202c2.267,0.953,3.162,2.354,2.806,3.159c-0.868,1.671-5.133,1.349-9.586,3.261    C920.875,1301.088,917.995,1304.251,916.217,1303.632z"/>
		<path style="fill:#F04E23;" d="M996.678,1276.191c-0.083-0.878,1.565-1.951,4.548-2.23c2.95-0.294,7.185,0.435,11.138,2.755    c3.948,2.327,6.644,5.673,7.821,8.395c1.206,2.743,1.069,4.704,0.262,5.059c-1.764,0.703-5.352-4.223-11.475-7.685    C1002.97,1278.815,996.922,1278.074,996.678,1276.191z"/>
		
			<ellipse transform="matrix(0.3609 -0.9326 0.9326 0.3609 -565.2479 1756.4832)" style="fill:#F04E23;" cx="998.885" cy="1290.64" rx="3.346" ry="9.766"/>
		<path style="fill:#F04E23;" d="M1056.977,1305.873c0.003-0.886,1.236-1.794,3.454-1.844c2.184-0.07,5.235,0.941,7.667,3.246    c2.432,2.305,3.605,5.297,3.652,7.482c0.069,2.218-0.771,3.498-1.656,3.548c-1.884-0.025-3.497-3.396-6.599-6.173    C1060.556,1309.184,1057.103,1307.753,1056.977,1305.873z"/>
		<path style="fill:#F04E23;" d="M1050.476,1317.714c0.082-0.902,1.228-1.677,3.155-1.854c1.908-0.185,4.569,0.326,7.068,1.787    c2.498,1.465,4.245,3.536,5.016,5.291c0.789,1.768,0.673,3.147-0.074,3.659c-1.602,0.988-4.706-1.125-8.325-3.176    C1053.759,1321.269,1050.398,1319.595,1050.476,1317.714z"/>
		
			<ellipse transform="matrix(0.6794 -0.7338 0.7338 0.6794 -678.9109 1057.385)" style="fill:#F04E23;" cx="870.492" cy="1305.559" rx="7.12" ry="3.346"/>
		
			<ellipse transform="matrix(0.4065 -0.9137 0.9137 0.4065 -686.8206 1582.2053)" style="fill:#F04E23;" cx="874.381" cy="1319.735" rx="7.417" ry="3.346"/>
	</g>
	<ellipse style="fill:#04294F;" cx="395.899" cy="497.917" rx="21.294" ry="37.984"/>
	<ellipse style="fill:#04294F;" cx="561.561" cy="497.917" rx="21.294" ry="37.984"/>
	<ellipse style="fill:#04294F;" cx="775.788" cy="515.286" rx="11.363" ry="17.369"/>
	<path style="fill:#04294F;" d="M583.194,639.876c0.311,0.811-0.862,2.325-3.735,3.784c-2.85,1.454-7.462,2.717-13.342,2.503   c-5.817-0.273-12.966-2.119-19.548-6.955c-6.651-4.791-11.928-12.717-14.009-21.804c-2.065-9.09-0.747-18.521,3.169-25.722   c3.834-7.212,9.475-11.975,14.598-14.744c5.206-2.743,9.91-3.604,13.108-3.53c3.221,0.068,4.935,0.924,5.006,1.79   c0.204,1.986-6.049,3.559-12.807,9.575c-3.318,2.996-6.718,7.113-8.775,12.216c-2.09,5.008-2.632,11.211-1.252,17.439   c1.457,6.21,4.635,11.565,8.69,15.171c4.066,3.707,8.915,5.941,13.204,7.202C576.2,639.292,582.517,637.999,583.194,639.876z"/>
	<path style="fill:#04294F;" d="M447.65,614.184c-0.763-3.502,19.456-10.607,45.471-9.958c26.013,0.542,45.887,8.493,44.982,11.959   c-0.869,3.706-20.919,1.9-45.285,1.421C468.458,616.97,448.365,617.921,447.65,614.184z"/>
	<path style="fill:#FFFFFF;" d="M817.668,715.476c0.868,0.761,0.375,2.959-1.413,6.505c-1.718,3.614-4.985,8.326-9.556,14.185   c-9.307,11.477-24.863,26.673-47.145,41.319c-22.194,14.698-51.124,28.655-85.071,38.193   c-33.899,9.616-72.451,14.78-112.612,14.934c-20.086,0.148-39.607-0.983-58.323-2.756c-18.728-1.831-36.548-4.232-53.781-7.516   c-34.37-6.416-65.574-17.96-88.092-34.289c-11.274-7.975-20.213-16.898-27.074-25.432c-6.789-8.643-11.373-17.017-14.204-24.16   c-5.664-14.421-4.702-23.216-2.696-23.655c2.435-0.654,5.836,6.639,14.075,17.319c4.115,5.33,9.5,11.468,16.507,17.738   c7.097,6.173,15.696,12.603,26.084,18.223c20.571,11.447,48.248,19.471,80.5,23.852c16.102,2.246,33.542,3.952,51.446,5.258   c17.922,1.26,36.463,2.103,55.375,1.961c37.824-0.15,73.555-4.076,105.114-11.332c31.575-7.185,58.974-17.774,80.891-28.807   C791.755,734.966,813.832,712.014,817.668,715.476z"/>
	<g>
		<g>
			<path style="fill:#00AEE0;" d="M712.432,1817.551c-0.919,3.579-5.985,5.115-11.313,3.418c-5.327-1.698-8.57-5.881-7.247-9.332     c1.323-3.451,6.39-4.986,11.313-3.418C710.108,1809.787,713.351,1813.971,712.432,1817.551z"/>
		</g>
		<g>
			<path style="fill:#00AEE0;" d="M761.974,1824.473c-0.015,3.678-7.804,6.628-17.34,5.677c-9.538-0.933-16.603-5.357-15.893-8.966     c0.71-3.644,8.363-5.213,17.209-4.352C754.794,1817.719,761.995,1820.76,761.974,1824.473z"/>
		</g>
		<g>
			<path style="fill:#00AEE0;" d="M811.762,1819.495c0.856,3.577-6.023,8.285-15.516,9.606c-9.49,1.338-17.394-1.293-17.558-4.967     c-0.172-3.709,6.9-7.041,15.702-8.287C803.193,1814.627,810.904,1815.882,811.762,1819.495z"/>
		</g>
		<g>
			<path style="fill:#00AEE0;" d="M846.231,1808.529c1.463,3.394-1.607,7.706-6.86,9.62c-5.254,1.913-10.379,0.585-11.443-2.954     c-1.064-3.539,2.006-7.851,6.86-9.62C839.643,1803.807,844.769,1805.135,846.231,1808.529z"/>
		</g>
	</g>
	<g>
		<g>
			<path style="fill:#00AEE0;" d="M297.817,1818.744c-0.977,3.564-6.067,5.021-11.364,3.243c-5.297-1.78-8.474-6.012-7.101-9.443     c1.373-3.431,6.463-4.888,11.364-3.243C295.617,1810.947,298.795,1815.18,297.817,1818.744z"/>
		</g>
		<g>
			<path style="fill:#00AEE0;" d="M346.253,1826.512c-0.105,3.677-7.809,6.441-17.132,5.309c-9.326-1.116-16.154-5.637-15.378-9.233     c0.777-3.63,8.323-5.085,16.98-4.054C339.378,1819.589,346.365,1822.801,346.253,1826.512z"/>
		</g>
		<g>
			<path style="fill:#00AEE0;" d="M395.192,1822.985c0.741,3.604-6.132,8.058-15.469,9.083c-9.334,1.041-17.011-1.798-17.08-5.476     c-0.075-3.711,6.943-6.855,15.608-7.826C386.919,1817.819,394.45,1819.348,395.192,1822.985z"/>
		</g>
		<g>
			<path style="fill:#00AEE0;" d="M429.697,1813.27c1.34,3.444-1.878,7.646-7.192,9.374c-5.314,1.727-10.389,0.221-11.332-3.352     c-0.943-3.573,2.276-7.775,7.192-9.374C423.282,1808.32,428.357,1809.826,429.697,1813.27z"/>
		</g>
	</g>
	<g>
		<g>
			
				<ellipse transform="matrix(0.9979 -0.0644 0.0644 0.9979 -90.2947 37.3881)" style="fill:#00AEE0;" cx="534.663" cy="1418.974" rx="6.692" ry="9.74"/>
		</g>
		<g>
			
				<ellipse transform="matrix(0.9979 -0.0644 0.0644 0.9979 -93.5509 37.7041)" style="fill:#00AEE0;" cx="537.932" cy="1469.62" rx="6.692" ry="9.74"/>
		</g>
	</g>
	<g>
		<g>
			
				<ellipse transform="matrix(0.9991 -0.0428 0.0428 0.9991 -60.2336 26.1466)" style="fill:#00AEE0;" cx="580.185" cy="1419.017" rx="6.692" ry="9.74"/>
		</g>
		<g>
			
				<ellipse transform="matrix(0.9991 -0.0428 0.0428 0.9991 -62.5652 26.2965)" style="fill:#00AEE0;" cx="582.521" cy="1473.524" rx="6.692" ry="9.74"/>
		</g>
	</g>
	<g>
		<g>
			<path style="fill:#04294F;" d="M34.39,1031.128c-1.407,3.417-6.62,4.327-11.642,2.026c-5.022-2.302-7.737-6.844-6.066-10.141     s6.884-4.206,11.642-2.026C33.082,1023.168,35.797,1027.71,34.39,1031.128z"/>
		</g>
		<g>
			<path style="fill:#04294F;" d="M83.951,1046.949c-0.772,3.6-9.207,4.846-18.667,2.12c-9.464-2.712-15.951-8.249-14.692-11.709     c1.265-3.486,9.41-3.724,18.389-1.153C77.955,1038.795,84.732,1043.323,83.951,1046.949z"/>
		</g>
		<g>
			<path style="fill:#04294F;" d="M135.502,1053.976c-0.138,3.68-8.234,6.362-18.023,5.307c-9.79-1.041-17.133-5.374-16.491-9     c0.644-3.652,8.628-5.292,17.916-4.307C128.19,1046.98,135.645,1050.27,135.502,1053.976z"/>
		</g>
		<g>
			<path style="fill:#04294F;" d="M172.312,1053.471c0.305,3.683-3.922,6.867-9.441,7.106c-5.519,0.238-10.005-2.569-10.02-6.265     s4.213-6.879,9.441-7.106C167.521,1046.981,172.007,1049.788,172.312,1053.471z"/>
		</g>
	</g>
	<g>
		<g>
			<path style="fill:#04294F;" d="M972.821,1050.911c-0.461,3.667-5.257,5.904-10.711,4.992c-5.455-0.914-9.26-4.591-8.5-8.208     c0.759-3.617,5.555-5.854,10.711-4.992C969.476,1043.567,973.281,1047.244,972.821,1050.911z"/>
		</g>
		<g>
			<path style="fill:#04294F;" d="M1021.188,1053.158c0.178,3.679-7.108,7.023-16.279,6.85c-9.171-0.16-16.333-3.768-16.019-7.438     c0.312-3.694,7.582-6.092,16.263-5.943C1013.833,1046.793,1021.012,1049.455,1021.188,1053.158z"/>
		</g>
		<g>
			<path style="fill:#04294F;" d="M1069.252,1047.266c0.793,3.597-5.833,8.115-14.903,9.479c-9.069,1.377-16.732-0.981-17.039-4.651     c-0.312-3.694,6.456-7.276,15.039-8.582C1060.935,1042.224,1068.456,1043.645,1069.252,1047.266z"/>
		</g>
		<g>
			<path style="fill:#04294F;" d="M1103.581,1037.798c1.228,3.486-2.061,7.631-7.348,9.254c-5.287,1.622-10.336,0.034-11.275-3.541     c-0.939-3.575,2.35-7.72,7.348-9.254C1097.305,1032.725,1102.353,1034.313,1103.581,1037.798z"/>
		</g>
	</g>
	<g>
		<g>
			<path style="fill:#04294F;" d="M291.118,1347.219c-0.412,3.673-5.091,6.142-10.452,5.514c-5.36-0.627-9.343-4.11-8.896-7.778     c0.447-3.668,5.126-6.137,10.452-5.514C287.548,1340.063,291.53,1343.546,291.118,1347.219z"/>
		</g>
		<g>
			<path style="fill:#04294F;" d="M347.988,1352.965c-0.323,3.682-9.103,5.839-19.611,4.819c-10.508-1.02-18.709-4.827-18.318-8.502     c0.391-3.675,9.171-5.833,19.611-4.819C340.111,1345.477,348.312,1349.284,347.988,1352.965z"/>
		</g>
		<g>
			<path style="fill:#04294F;" d="M404.977,1357.375c-0.237,3.688-8.964,6.051-19.492,5.278     c-10.529-0.773-18.817-4.386-18.512-8.069c0.305-3.683,9.032-6.046,19.492-5.278     C396.926,1350.074,405.214,1353.687,404.977,1357.375z"/>
		</g>
		<g>
			<path style="fill:#04294F;" d="M462.057,1360.449c-0.15,3.693-8.82,6.26-19.364,5.733c-10.544-0.526-18.915-3.944-18.697-7.634     c0.218-3.689,8.888-6.256,19.364-5.733C453.836,1353.339,462.207,1356.756,462.057,1360.449z"/>
		</g>
		<g>
			<path style="fill:#04294F;" d="M519.191,1362.186c-0.064,3.695-8.671,6.464-19.224,6.185c-10.554-0.28-19.002-3.5-18.87-7.194     c0.132-3.693,8.739-6.463,19.224-6.185C510.807,1355.27,519.255,1358.491,519.191,1362.186z"/>
		</g>
		<g>
			<path style="fill:#04294F;" d="M576.35,1362.586c0.023,3.696-8.517,6.665-19.074,6.633c-10.557-0.033-19.078-3.055-19.033-6.751     c0.045-3.695,8.585-6.665,19.074-6.633C567.806,1355.867,576.328,1358.89,576.35,1362.586z"/>
		</g>
		<g>
			<path style="fill:#04294F;" d="M633.502,1361.648c0.109,3.694-8.359,6.863-18.914,7.077c-10.555,0.214-19.144-2.608-19.185-6.304     c-0.041-3.696,8.427-6.864,18.914-7.077C624.804,1355.132,633.393,1357.954,633.502,1361.648z"/>
		</g>
		<g>
			<path style="fill:#04294F;" d="M690.618,1359.374c0.195,3.691-8.196,7.057-18.743,7.518c-10.547,0.461-19.201-2.159-19.328-5.853     s8.264-7.059,18.744-7.518C681.769,1353.063,690.423,1355.683,690.618,1359.374z"/>
		</g>
		<g>
			<path style="fill:#04294F;" d="M747.663,1355.762c0.282,3.685-8.028,7.247-18.561,7.955c-10.533,0.708-19.245-1.709-19.459-5.398     c-0.214-3.69,8.096-7.251,18.562-7.955S747.382,1352.077,747.663,1355.762z"/>
		</g>
		<g>
			<path style="fill:#04294F;" d="M804.608,1350.814c0.368,3.677-7.856,7.433-18.37,8.388c-10.514,0.955-19.28-1.257-19.581-4.94     c-0.3-3.683,7.924-7.439,18.37-8.388C795.474,1344.924,804.24,1347.136,804.608,1350.814z"/>
		</g>
		<g>
			<path style="fill:#04294F;" d="M842.922,1346.723c0.424,3.671-3.58,7.129-8.944,7.723c-5.364,0.594-10.028-1.904-10.417-5.579     c-0.389-3.675,3.615-7.133,8.944-7.723C837.834,1340.554,842.498,1343.052,842.922,1346.723z"/>
		</g>
	</g>
	<path style="fill:#04294F;" d="M220.994,1008.338c-7.753,9.545-14.22,18.973-19.323,28.05c-5.649-15.7-2.376-33.348,1.013-49.789   c3.039-14.96,6.077-29.92,9.155-44.88c0.74-3.74,3.273-8.571,6.857-7.285c2.571,0.935,3,4.324,2.961,7.051   C221.656,963.029,224.149,986.871,220.994,1008.338z"/>
	<path style="fill:#04294F;" d="M930.816,1042.582c-5.649-11.922-13.791-24.427-24.076-37.128c0.039,0.623,0.039,1.247,0.078,1.831   c-0.156-0.779-0.312-1.519-0.468-2.298c-4.792-24.076-7.753-48.542-8.882-73.047c-0.117-3.117,0.234-7.012,3.156-8.142   c0.74-0.273,1.402-0.351,2.104-0.195c2.805,0.506,4.987,4.169,6.078,7.285c3.311,9.506,6.584,19.012,9.857,28.518   c4.675,13.441,9.35,26.959,12.233,40.906C933.777,1014.22,934.79,1028.985,930.816,1042.582z"/>
	<path style="fill:#00AEE0;" d="M364.427,146.352c-1.216,1.488-8.213-2.675-19.829-7.815c-5.822-2.534-12.799-5.357-20.798-7.614   c-1.99-0.593-4.048-1.125-6.157-1.638c-2.006-0.576-4.454-0.961-6.75-1.444c-2.402-0.44-4.5-1.021-7.531-1.263   c-2.852-0.32-5.73-0.643-8.632-0.968c-3.392-0.277-6.813-0.556-10.261-0.837c-6.767-0.564-13.638-1.136-20.597-1.715   c1.49-0.538,2.994-1.08,4.505-1.626c9.894-3.507,19.555-6.932,28.885-10.239c4.633-1.606,9.183-3.183,13.64-4.728   c2.069-0.706,4.117-1.405,6.141-2.096c1.104-0.354,2.196-0.704,3.275-1.05c8.635-2.745,16.474-5.042,23.123-6.789   c13.298-3.494,21.836-4.785,22.461-3.046c0.625,1.739-6.78,6.179-19.259,11.952c-6.239,2.886-13.747,6.106-22.153,9.488   c-1.052,0.42-2.117,0.845-3.194,1.275l-0.379,0.151l-0.018,0.021l-0.033,0.04l-0.048,0.071c-0.05,0.087-0.044,0.144-0.011,0.179   c0.065,0.072,0.244,0.057,0.244,0.057l-0.016,0.002c-0.056,0.008-0.216,0.03-0.216,0.129c0.023,0.056-0.016,0.105,0.192,0.234   c2.297,0.709,4.523,1.457,6.659,2.284c8.587,3.194,15.791,7.228,21.455,11.052C360.462,138.188,365.518,145.084,364.427,146.352z"/>
	<path style="fill:#00AEE0;" d="M765.62,142.454c-1.893,0.6-5.4-6.665-12.715-16.666c-3.692-4.969-8.34-10.634-14.213-16.143   c-2.974-2.708-6.11-5.525-9.647-8.068c-1.67-1.333-3.665-2.574-5.352-3.751c-0.167-0.093-0.059,0-0.091-0.024   c0,0-0.009-0.031-0.105-0.126c-0.107-0.102-0.325-0.287-0.384-0.303c-0.123-0.06-0.224-0.024-0.273,0.218   c-0.008,0.075-0.035,0.1-0.015,0.253l0.198,0.828c0.436,1.517,0.861,2.996,1.274,4.435c1.701,6.564,2.352,12.535,2.362,17.468   c-0.033,9.916-2.215,15.49-3.649,15.361c-1.618-0.11-2.342-5.705-4.465-14.402c-1.078-4.346-2.584-9.462-4.788-14.98   c-0.26-0.694-0.587-1.376-0.878-2.079c-0.324-0.746-0.484-1.187-1.197-2.688c-0.593-1.279-1.194-2.573-1.801-3.883   c-0.87-1.548-1.75-3.114-2.639-4.697c-0.495-0.831-0.832-1.564-1.467-2.497l-1.949-2.841c-1.362-1.973-2.738-3.967-4.126-5.979   c-3.037-4.335-6.131-8.753-9.278-13.246c1.766,0.63,3.557,1.268,5.369,1.914c2.533,0.974,5.097,1.96,7.688,2.957   c2.451,0.953,4.928,1.915,7.428,2.887c2.474,0.941,5.209,2.267,7.843,3.408c1.943,0.756,4.044,2.028,6.109,3.236   c2.024,1.201,4.19,2.381,6.047,3.579c2.241,1.615,4.248,2.949,6.179,4.594c3.929,3.073,7.329,6.486,10.438,9.818   c6.145,6.757,10.532,13.765,13.512,19.905C766.933,133.376,767.245,142.008,765.62,142.454z"/>
	
		<ellipse transform="matrix(0.0918 -0.9958 0.9958 0.0918 364.4991 1182.9128)" style="fill:#00AEE0;" cx="830.712" cy="391.641" rx="78.184" ry="6.692"/>
	
		<ellipse transform="matrix(0.1805 -0.9836 0.9836 0.1805 336.1219 1061.7535)" style="fill:#00AEE0;" cx="805.233" cy="329.166" rx="54.127" ry="6.692"/>
	<path style="fill:#00AEE0;" d="M721.879,517.582c-3.897-0.584-0.99-32.33-8.206-70.151c-6.778-37.901-20.838-66.512-17.408-68.45   c1.521-0.865,7.138,5.293,13.566,16.971c3.235,5.819,6.499,13.064,9.531,21.349c2.937,8.312,5.583,17.679,7.471,27.698   c1.817,10.032,2.693,19.727,2.921,28.539c0.13,8.821-0.329,16.754-1.271,23.345C726.654,510.087,723.609,517.846,721.879,517.582z"/>
	<path style="fill:#00AEE0;" d="M324.042,241.965c-0.354,2.012-10.508,1.107-26.12,3.268c-7.778,1.138-16.951,2.97-26.574,6.561   c-4.846,1.681-9.734,3.94-14.674,6.457c-1.22,0.659-2.451,1.324-3.692,1.994c-2.461,1.578-4.941,3.169-7.44,4.772   c-2.466,1.446-5.392,3.79-8.218,5.902c-2.783,2.097-5.586,4.207-8.404,6.33c-1.378,1.035-2.752,2.068-4.109,3.087   c1.091-5.32,2.169-10.575,3.231-15.752c0.593-2.601,0.924-4.997,1.726-7.696c0.759-2.657,1.511-5.292,2.256-7.903   c0.406-1.315,0.858-2.644,1.393-3.937l1.007-2.505c0.535-1.407,1.222-2.731,1.842-4.065c1.209-2.685,2.676-5.167,4.031-7.615   c5.78-9.61,12.426-17.252,18.758-22.711c12.729-11.016,22.885-13.902,23.586-12.491c1.034,1.747-7.06,7.425-16.936,19.06   c-4.954,5.781-10.139,13.217-14.693,22.044c-1.048,2.252-2.226,4.506-3.166,6.925c-0.485,1.202-1.044,2.387-1.456,3.644   l-0.336,0.935l-0.169,0.469c-0.031,0.091-0.008,0.039-0.015,0.066c-0.001,0.035,0.013,0.07,0.013,0.07   c0.058,0.137,0.157,0.036,0.176,0.003l0.003-0.005c0.033-0.019-0.087,0.065,0.072-0.003c0.158-0.074-0.026,0.032,0.434-0.194   c1.416-0.718,2.821-1.431,4.214-2.137c5.638-2.669,11.23-4.926,16.736-6.466c10.948-3.312,21.266-4.312,29.805-4.284   C314.54,235.996,324.42,240.383,324.042,241.965z"/>
	<path style="fill:#00AEE0;" d="M440.459,272.728c0.505,1.778-3.578,4.676-10.586,7.925c-3.504,1.624-7.74,3.336-12.5,5.04   c-2.38,0.852-4.891,1.701-7.506,2.537c-1.311,0.407-2.645,0.821-3.999,1.241c-2.473,0.714-4.983,1.439-7.523,2.172   c-4.619,1.278-9.148,2.531-13.547,3.748c0.946-4.904,1.864-9.661,2.746-14.233c0.455-2.204,0.9-4.363,1.335-6.472   c0.277-1.078,0.548-2.131,0.812-3.156c1.092-4.094,2.218-7.716,3.324-10.71c2.212-5.988,4.346-9.466,5.977-9.186   c1.632,0.28,2.485,4.27,2.576,10.653c0.045,3.192-0.1,6.982-0.433,11.206c-0.093,1.055-0.188,2.138-0.286,3.247   c0.062,0.122,0.125,0.193,0.185,0.24c0.119,0.092,0.228,0.06,0.306,0.001c0.11-0.096,0.119-0.132,0.119-0.132l0.001,0.009   l0.004,0.01l0.002,0.003l0.25-0.067l0.514-0.138c1.373-0.354,2.725-0.703,4.055-1.046c2.664-0.664,5.247-1.26,7.719-1.787   c4.945-1.052,9.448-1.821,13.283-2.281C434.958,270.63,439.955,270.95,440.459,272.728z"/>
</g>

            </g>
        </g>
    </g>
    
</svg>